<?xml version="1.0" encoding="UTF-8"?>
<svg id="Calque_2" data-name="Calque 2" xmlns="http://www.w3.org/2000/svg" viewBox="0 0 2006.83 860.32">
  <defs>
    <style>
      .cls-1 {
        fill: #243355;
      }

      .cls-2 {
        fill: #5b8ddb;
      }
    </style>
  </defs>
  <g id="Calque_1-2" data-name="Calque 1">
    <g id="Calque_2-2" data-name="Calque 2">
      <g id="Carte_de_visite_UE_Recto" data-name="Carte de visite UE Recto">
        <path class="cls-1" d="M483.59,613.56v-129.44h31.43v101.97h50.05v27.47h-81.48Z"/>
        <path class="cls-1" d="M664.48,575.85h-65.88c1.86,10.48,11.17,17.69,21.65,17.23,7.92.47,15.37-3.03,20.25-9.55l20.72,13.27c-9.54,13.04-25.14,20.25-41.21,19.32-27.24,0-49.82-17.23-49.82-48.19-.93-25.84,19.09-47.73,45.16-48.66h3.96c26.77,0,45.63,18.39,45.63,49.35v7.45h-.47v-.23ZM637,557.22c.47-9.08-6.52-16.99-15.6-17.46h-2.33c-10.24-.47-19.32,6.98-20.49,17.46h38.41Z"/>
        <path class="cls-1" d="M736.65,549.31c-5.12-4.89-11.87-7.92-18.86-8.15-5.59,0-11.41,2.1-11.41,7.22s4.89,6.52,16.53,9.08c13.74,3.03,28.87,10.01,28.87,27.7s-20.25,30.96-38.88,30.96c-14.43.47-28.63-4.66-39.58-13.97l16.76-17.69c5.59,6.29,13.74,9.78,22.12,10.01,4.89,0,10.71-2.1,10.71-8.15s-5.59-7.45-17.93-10.48-26.54-9.31-26.54-26.54,20.49-30.5,37.71-30.5,26.07,4.42,36.08,13.04l-16.06,16.99.47.47h0Z"/>
        <path class="cls-1" d="M833.96,616.59c-36.55,1.63-67.51-26.54-69.38-63.09v-5.12c0-41.44,30.5-67.75,70.07-67.75,17.93-.47,35.39,6.29,48.19,18.86l-21.19,21.19c-6.29-7.68-15.83-12.11-25.84-11.64-20.49,0-37.25,16.53-37.25,37.02v2.56c0,23.51,15.13,39.58,36.55,39.58,10.71,0,20.95-4.66,27.24-13.27l21.65,20.49c-12.8,14.2-31.2,21.88-50.05,21.19h0Z"/>
        <path class="cls-1" d="M939.42,616.12c-26.54.93-48.89-19.79-50.05-46.33v-2.1c0-29.8,23.05-48.19,50.29-48.19s50.52,18.16,50.52,48.19c.23,26.54-21.19,48.42-47.73,48.66h-3.03v-.23ZM939.42,544.19c-11.87,0-21.42,9.78-21.42,21.65v1.63c-1.16,11.87,7.45,22.58,19.32,23.75,11.87,1.16,22.58-7.45,23.75-19.32v-4.66c.7-12.11-8.38-22.35-20.25-23.05-.47,0-.93,0-1.4,0Z"/>
        <path class="cls-1" d="M1067.46,546.75c-2.56-.7-5.35-.93-8.15-.93-11.41-.47-20.72,8.38-21.19,19.56v47.96h-29.8v-91.03h28.87v13.27h0c4.42-9.55,13.97-15.6,24.68-15.6s4.19,0,6.29.7l-.47,26.07h-.23Z"/>
        <path class="cls-1" d="M1146.38,613.56v-12.11h0c-6.98,9.31-18.16,14.9-29.8,14.43-27.24,0-43.07-22.81-43.07-48.19s16.06-47.49,42.84-47.49c10.71,0,20.72,4.19,27.7,12.11h.47v-57.04h29.8v138.05h-27.94v.23ZM1123.57,544.65c-11.87,0-21.42,9.55-21.42,21.65v1.63c-.93,11.87,7.92,22.35,20.02,23.28h1.4c12.8-1.16,22.35-12.34,21.42-25.14-.93-11.41-10.01-20.49-21.42-21.42Z"/>
        <path class="cls-1" d="M1212.73,509.73c-8.85-.47-15.6-8.15-14.9-16.99.47-8.85,8.15-15.6,16.99-14.9,8.38.47,14.9,7.45,15.13,16.06-.23,9.08-7.92,16.3-17.23,16.06h0v-.23ZM1197.83,613.56v-91.26h29.8v91.03h-29.8v.23Z"/>
        <path class="cls-1" d="M1304.69,549.31c-5.12-4.89-11.87-7.92-18.86-8.15-5.59,0-11.17,2.1-11.17,7.22s4.89,6.52,16.53,9.08c13.74,3.03,28.87,10.01,28.87,27.7s-20.25,30.96-38.88,30.96c-14.43.47-28.63-4.66-39.58-13.97l16.76-17.69c5.59,6.29,13.74,10.01,22.35,10.24,4.89,0,10.71-2.1,10.71-8.15s-5.59-7.45-17.93-10.48c-12.34-2.79-26.54-9.31-26.54-26.54s20.49-30.5,37.71-30.5c13.27,0,26.31,4.19,36.32,12.8l-16.3,16.99v.47h0Z"/>
        <path class="cls-1" d="M1369.88,544.89v34.69c0,8.15,2.79,12.8,11.17,12.8s6.05-.47,8.85-1.4v21.88c-5.59,1.86-11.41,2.79-17.23,2.79-24.21,0-32.13-13.04-32.13-32.13v-38.65h-14.67v-22.58h14.43v-23.98h29.33v23.98h21.19v22.35h-20.95v.23Z"/>
        <path class="cls-1" d="M1494.89,575.85h-65.65c1.86,10.48,11.17,17.69,21.65,17.23,7.92,0,15.37-3.26,20.02-9.55l20.95,13.27c-9.55,13.04-25.14,20.25-41.21,19.32-27.24,0-49.82-17.23-49.82-48.19-1.16-25.84,19.09-47.73,44.93-48.66h4.19c26.77,0,45.63,18.39,45.63,49.35s0,4.89-.47,7.45h0l-.23-.23ZM1467.89,557.22c.47-9.08-6.52-16.99-15.6-17.46h-2.1c-10.48-.7-19.56,6.98-20.72,17.46h38.65-.23Z"/>
        <path class="cls-1" d="M1567.06,549.31c-5.12-4.89-11.87-7.92-18.86-8.15-5.82,0-11.41,2.1-11.41,7.22s4.89,6.52,16.53,9.08c13.97,3.03,29.1,10.01,29.1,27.7s-20.25,30.96-38.88,30.96c-14.43.47-28.64-4.66-39.58-13.97l16.76-17.69c5.59,6.29,13.74,10.01,22.12,10.24,4.89,0,10.71-2.1,10.71-8.15s-5.59-7.45-18.16-10.48c-12.34-2.79-26.31-9.31-26.31-26.54s20.49-30.5,37.71-30.5c13.27,0,26.31,4.19,36.55,12.8l-16.3,16.99v.47h0Z"/>
        <path class="cls-1" d="M1615.72,614.96c-10.01,0-18.39-7.68-18.62-17.69h0c.23-10.01,8.61-18.16,18.62-17.93,9.78,0,17.93,7.92,17.93,17.93s-7.92,17.93-17.93,17.93h0v-.23Z"/>
        <path class="cls-1" d="M1716.75,551.64c-3.96-4.66-10.01-7.45-16.06-7.22-12.11.47-21.42,10.71-20.95,22.58v.7c-.7,12.11,8.61,22.12,20.72,22.81,6.29,0,12.57-2.1,16.76-6.75l16.53,20.25c-9.31,7.92-20.95,12.11-33.29,11.87-28.64,0-50.75-18.16-50.75-48.19s22.35-48.19,50.52-48.19c12.34,0,24.44,4.19,33.76,12.11l-17.46,19.79h.23v.23Z"/>
        <path class="cls-1" d="M1791.72,616.12c-26.54,1.16-49.12-19.56-50.05-46.1v-2.56c0-29.8,22.81-48.19,50.29-48.19s50.52,18.16,50.52,48.19c0,26.54-21.19,48.42-47.73,48.66h-3.03ZM1791.72,544.19c-11.87,0-21.42,9.78-21.42,21.65v1.63c-1.16,11.87,7.45,22.58,19.32,23.75,11.87,1.16,22.58-7.45,23.75-19.32v-4.66c.7-12.11-8.38-22.35-20.25-23.05-.47,0-.93,0-1.4,0Z"/>
        <path class="cls-1" d="M1977.03,613.56v-49.82c0-10.48-2.33-19.09-13.04-19.09s-15.13,9.55-15.13,19.79v49.35h-29.8v-52.15c0-10.48-3.96-16.99-13.04-16.99s-14.9,8.61-14.9,19.56v49.59h-29.8v-91.49h28.87v12.57h.47c5.59-9.55,15.83-15.37,27.01-15.13,11.41-.7,22.12,5.35,27.47,15.37,6.05-10.01,17.23-16.06,28.87-15.37,24.68,0,32.83,20.02,32.83,37.02v56.34h-29.8s0,.47,0,.47Z"/>
      </g>
    </g>
    <g>
      <path class="cls-1" d="M507.04,680.51c1.95.71,3.37,1.77,4.43,3.19s1.6,3.37,1.6,5.85-.53,3.55-1.6,5.14-2.66,2.84-4.61,3.72c-2.13.89-4.61,1.42-7.45,1.42s-5.5-.53-7.62-1.77c-2.13-1.06-3.55-2.66-4.61-4.43s-1.6-3.9-1.6-6.03h6.21c0,1.77.71,3.37,1.77,4.79s3.01,2.13,5.67,2.13,3.19-.18,4.26-.71c1.06-.53,1.95-1.06,2.31-1.77.53-.71.71-1.42.71-2.13,0-1.24-.53-2.3-1.6-3.01s-3.01-1.42-5.67-1.77c-3.19-.35-5.67-1.06-7.45-1.95s-3.19-1.95-3.9-3.19c-.71-1.24-1.24-3.01-1.24-4.96s.53-3.37,1.6-4.79,2.48-2.66,4.43-3.37,4.26-1.24,6.74-1.24,5.14.53,6.91,1.42c1.77,1.06,3.19,2.3,4.08,3.9s1.42,3.37,1.42,5.32h-6.21c0-1.42-.53-2.66-1.6-3.72s-2.66-1.6-4.79-1.6-3.72.35-4.79,1.24-1.42,1.77-1.42,2.66c0,2.3,2.13,3.72,6.56,4.08,2.84.35,5.32.89,7.27,1.6h.18Z"/>
      <path class="cls-1" d="M559.52,668.81c2.13,1.95,3.19,4.61,3.19,7.62s-.53,3.72-1.42,5.32-2.31,2.84-4.26,3.9-4.08,1.42-6.56,1.42h-7.98v12.23h-6.56v-33.51h13.65c4.43,0,7.8,1.06,9.93,3.01ZM554.73,680.51c1.06-.89,1.6-2.13,1.6-3.72s-.53-2.84-1.6-3.72-2.48-1.42-4.26-1.42h-7.8v10.28h7.8c1.77,0,3.19-.53,4.26-1.42h0Z"/>
      <path class="cls-1" d="M591.44,679.98h14.18v5.32h-14.18v8.33h17.2v5.67h-23.58v-33.51h23.58v5.67h-17.2v8.51ZM597.46,655.51h5.32l-5.32,7.27h-3.9l3.9-7.27Z"/>
      <path class="cls-1" d="M632.22,673.95c1.24-2.66,3.19-4.61,5.67-6.21,2.48-1.6,5.5-2.3,8.87-2.3s6.03.71,8.33,1.95c2.31,1.24,3.9,3.01,5.14,4.96,1.24,1.95,1.77,4.08,1.95,6.03h-6.38c0-1.24-.53-2.3-1.24-3.37-.71-1.06-1.77-1.95-3.01-2.66s-2.84-1.06-4.61-1.06-3.9.53-5.5,1.6c-1.6,1.06-2.66,2.3-3.55,4.08s-1.24,3.72-1.24,5.85.35,4.08,1.24,5.85,1.95,3.19,3.55,4.08c1.6,1.06,3.37,1.6,5.5,1.6s3.37-.35,4.61-1.06c1.24-.71,2.31-1.6,3.01-2.66.71-1.06,1.06-2.3,1.24-3.37h6.38c0,1.95-.89,4.08-1.95,6.03s-2.84,3.72-5.14,4.96-4.96,1.95-8.33,1.95-6.38-.71-8.87-2.3c-2.48-1.6-4.43-3.55-5.67-6.21s-1.95-5.5-1.95-8.69.71-6.21,1.95-8.69v-.35Z"/>
      <path class="cls-1" d="M684.88,699.49v-33.51h6.56v33.51h-6.56Z"/>
      <path class="cls-1" d="M739.31,699.49l-2.66-7.62h-14.01l-2.66,7.62h-7.27l12.23-33.51h9.22l12.23,33.51h-7.27.18ZM735.05,686.54l-3.9-11.52c-.53-1.42-.71-3.01-.71-4.79,0-.53-.18-.71-.53-.71s-.53.18-.53.71c0,1.77-.35,3.37-.71,4.79l-3.9,11.52h10.46-.18Z"/>
      <path class="cls-1" d="M774.42,665.8v27.84h16.31v5.67h-22.87v-33.51h6.56Z"/>
      <path class="cls-1" d="M814.13,699.49v-33.51h6.56v33.51h-6.56Z"/>
      <path class="cls-1" d="M864.84,680.51c1.95.71,3.37,1.77,4.43,3.19s1.6,3.37,1.6,5.85-.53,3.55-1.6,5.14-2.66,2.84-4.61,3.72c-2.13.89-4.61,1.42-7.45,1.42s-5.5-.53-7.62-1.77c-2.13-1.06-3.55-2.66-4.61-4.43s-1.6-3.9-1.6-6.03h6.21c0,1.77.71,3.37,1.77,4.79s3.01,2.13,5.67,2.13,3.19-.18,4.26-.71c1.06-.53,1.95-1.06,2.31-1.77.53-.71.71-1.42.71-2.13,0-1.24-.53-2.3-1.6-3.01s-3.01-1.42-5.67-1.77c-3.19-.35-5.67-1.06-7.45-1.95s-3.19-1.95-3.9-3.19c-.71-1.24-1.24-3.01-1.24-4.96s.53-3.37,1.6-4.79,2.48-2.66,4.43-3.37,4.26-1.24,6.74-1.24,5.14.53,6.91,1.42c1.77,1.06,3.19,2.3,4.08,3.9s1.42,3.37,1.42,5.32h-6.21c0-1.42-.53-2.66-1.6-3.72s-2.66-1.6-4.79-1.6-3.72.35-4.79,1.24-1.42,1.77-1.42,2.66c0,2.3,2.13,3.72,6.56,4.08,2.84.35,5.32.89,7.27,1.6h.18Z"/>
      <path class="cls-1" d="M918.21,665.8v5.67h-10.11v27.84h-6.56v-27.84h-10.11v-5.67h26.77,0Z"/>
      <path class="cls-1" d="M947.64,671.65v8.33h14.18v5.32h-14.18v8.33h17.2v5.67h-23.58v-33.51h23.58v5.67h-17.2v.18Z"/>
      <path class="cls-1" d="M1008.28,680.51c1.95.71,3.37,1.77,4.43,3.19s1.6,3.37,1.6,5.85-.53,3.55-1.6,5.14-2.66,2.84-4.61,3.72c-2.13.89-4.61,1.42-7.45,1.42s-5.5-.53-7.62-1.77c-2.13-1.06-3.55-2.66-4.61-4.43s-1.6-3.9-1.6-6.03h6.21c0,1.77.71,3.37,1.77,4.79s3.01,2.13,5.67,2.13,3.19-.18,4.26-.71c1.06-.53,1.95-1.06,2.31-1.77.53-.71.71-1.42.71-2.13,0-1.24-.53-2.3-1.6-3.01s-3.01-1.42-5.67-1.77c-3.19-.35-5.67-1.06-7.45-1.95s-3.19-1.95-3.9-3.19c-.71-1.24-1.24-3.01-1.24-4.96s.53-3.37,1.6-4.79,2.48-2.66,4.43-3.37,4.26-1.24,6.74-1.24,5.14.53,6.91,1.42c1.77,1.06,3.19,2.3,4.08,3.9s1.42,3.37,1.42,5.32h-6.21c0-1.42-.53-2.66-1.6-3.72s-2.66-1.6-4.79-1.6-3.72.35-4.79,1.24-1.42,1.77-1.42,2.66c0,2.3,2.13,3.72,6.56,4.08,2.84.35,5.32.89,7.27,1.6h.18Z"/>
      <path class="cls-1" d="M1077.25,671.65v8.33h14.18v5.32h-14.18v8.33h17.2v5.67h-23.58v-33.51h23.58v5.67h-17.2v.18Z"/>
      <path class="cls-1" d="M1128.32,665.8l12.23,28.9c0,.35.35.53.53.35.18,0,.35-.18.35-.53v-.35l-.35-1.06c-.18-.53-.35-1.06-.53-1.42s0-.89,0-1.42v-24.47h6.56v33.51h-10.28l-12.23-28.9c0-.35-.35-.53-.53-.35-.18,0-.35.18-.35.53v.35l.35,1.06c.18.53.35,1.06.53,1.42s0,.89,0,1.42v24.47h-6.56v-33.51h10.28Z"/>
      <path class="cls-1" d="M1230.27,665.8v5.67h-10.11v27.84h-6.56v-27.84h-10.11v-5.67h26.77,0Z"/>
      <path class="cls-1" d="M1266.79,665.8c4.43,0,7.8.89,9.93,2.84,2.13,1.77,3.19,4.26,3.19,7.45s-.71,3.72-2.13,5.32-3.55,2.48-6.03,3.01c-.35,0-.53.35-.53.53s0,.53.53.53c1.42,0,2.66.35,3.55.89s1.6,1.06,1.95,1.6.71,1.42,1.06,2.3l3.19,9.04h-7.45l-1.77-6.74c-.35-1.42-.71-2.48-1.24-3.19-.53-.71-1.06-1.24-2.13-1.6-.89-.35-2.31-.53-3.9-.53h-5.14v12.23h-6.56v-33.51h13.65l-.18-.18ZM1271.23,680.34c1.42-.89,2.13-2.13,2.13-3.55s-.53-3.01-1.6-3.9-2.48-1.42-4.26-1.42h-7.8v10.28h6.56c1.95,0,3.72-.53,5.14-1.42h-.18Z"/>
      <path class="cls-1" d="M1327.43,699.49l-2.66-7.62h-14.01l-2.66,7.62h-7.27l12.23-33.51h9.22l12.23,33.51h-7.27.18ZM1323.18,686.54l-3.9-11.52c-.53-1.42-.71-3.01-.71-4.79,0-.53-.18-.71-.53-.71s-.53.18-.53.71c0,1.77-.35,3.37-.71,4.79l-3.9,11.52h10.46-.18Z"/>
      <path class="cls-1" d="M1363.43,690.44c.53,1.42.71,3.01.71,4.79,0,.53.18.71.53.71s.53-.18.53-.71c0-1.6.35-3.19.71-4.79l7.8-24.47h7.27l-11.88,33.51h-9.22l-11.88-33.51h7.27l7.8,24.47h.35Z"/>
      <path class="cls-1" d="M1421.23,699.49l-2.66-7.62h-14.01l-2.66,7.62h-7.27l12.23-33.51h9.22l12.23,33.51h-7.27.18ZM1416.97,686.54l-3.9-11.52c-.53-1.42-.71-3.01-.71-4.79,0-.53-.18-.71-.53-.71s-.53.18-.53.71c0,1.77-.35,3.37-.71,4.79l-3.9,11.52h10.46-.18Z"/>
      <path class="cls-1" d="M1477.26,686.19c0,2.66-.53,5.14-1.77,7.09-1.06,2.13-2.66,3.55-4.79,4.79-2.13,1.06-4.43,1.6-7.27,1.6s-5.32-.53-7.45-1.6c-2.13-1.06-3.55-2.66-4.79-4.61s-1.6-4.43-1.6-7.27v-20.39h6.56v20.74c0,2.48.71,4.26,1.95,5.5,1.42,1.24,3.01,1.77,5.14,1.77s3.72-.71,5.14-1.95c1.42-1.24,2.13-3.19,2.13-5.5v-20.74h6.56v20.39l.18.18Z"/>
      <path class="cls-1" d="M1500.3,665.8h6.91l6.38,11.52c.35.53.53,1.24.53,2.13,0,.53.18.71.53.71s.53-.18.53-.71c0-.89.18-1.6.53-2.13l6.38-11.52h6.91l-9.75,16.31,10.46,17.38h-7.09l-7.09-12.41c-.35-.53-.53-1.24-.53-2.13,0-.53-.18-.71-.53-.71s-.53.18-.53.71c0,.89-.18,1.6-.53,2.13l-7.09,12.41h-7.09l10.46-17.38-9.75-16.31h.35Z"/>
      <path class="cls-1" d="M1605.45,680.51c1.95.71,3.37,1.77,4.43,3.19s1.6,3.37,1.6,5.85-.53,3.55-1.6,5.14-2.66,2.84-4.61,3.72c-2.13.89-4.61,1.42-7.45,1.42s-5.5-.53-7.62-1.77c-2.13-1.06-3.55-2.66-4.61-4.43s-1.6-3.9-1.6-6.03h6.21c0,1.77.71,3.37,1.77,4.79s3.01,2.13,5.67,2.13,3.19-.18,4.26-.71c1.06-.53,1.95-1.06,2.31-1.77.53-.71.71-1.42.71-2.13,0-1.24-.53-2.3-1.6-3.01s-3.01-1.42-5.67-1.77c-3.19-.35-5.67-1.06-7.45-1.95s-3.19-1.95-3.9-3.19c-.71-1.24-1.24-3.01-1.24-4.96s.53-3.37,1.6-4.79,2.48-2.66,4.43-3.37,4.26-1.24,6.74-1.24,5.14.53,6.91,1.42c1.77,1.06,3.19,2.3,4.08,3.9s1.42,3.37,1.42,5.32h-6.21c0-1.42-.53-2.66-1.6-3.72s-2.66-1.6-4.79-1.6-3.72.35-4.79,1.24-1.42,1.77-1.42,2.66c0,2.3,2.13,3.72,6.56,4.08,2.84.35,5.32.89,7.27,1.6h.18Z"/>
      <path class="cls-1" d="M1662.01,686.19c0,2.66-.53,5.14-1.77,7.09-1.06,2.13-2.66,3.55-4.79,4.79-2.13,1.06-4.43,1.6-7.27,1.6s-5.32-.53-7.45-1.6c-2.13-1.06-3.55-2.66-4.79-4.61s-1.6-4.43-1.6-7.27v-20.39h6.56v20.74c0,2.48.71,4.26,1.95,5.5,1.42,1.24,3.01,1.77,5.14,1.77s3.72-.71,5.14-1.95c1.42-1.24,2.13-3.19,2.13-5.5v-20.74h6.56v20.39l.18.18Z"/>
      <path class="cls-1" d="M1699.95,665.8c4.43,0,7.8.89,9.93,2.84,2.13,1.77,3.19,4.26,3.19,7.45s-.71,3.72-2.13,5.32-3.55,2.48-6.03,3.01c-.35,0-.53.35-.53.53s0,.53.53.53c1.42,0,2.66.35,3.55.89s1.6,1.06,1.95,1.6.71,1.42,1.06,2.3l3.19,9.04h-7.45l-1.77-6.74c-.35-1.42-.71-2.48-1.24-3.19-.53-.71-1.06-1.24-2.13-1.6-.89-.35-2.31-.53-3.9-.53h-5.14v12.23h-6.56v-33.51h13.65l-.18-.18ZM1704.38,680.34c1.42-.89,2.13-2.13,2.13-3.55s-.53-3.01-1.6-3.9-2.48-1.42-4.26-1.42h-7.8v10.28h6.56c1.95,0,3.72-.53,5.14-1.42h-.18Z"/>
      <path class="cls-1" d="M1771.41,673.95c1.24-2.66,3.19-4.61,5.67-6.21,2.48-1.6,5.5-2.3,8.87-2.3s6.03.71,8.33,1.95c2.31,1.24,3.9,3.01,5.14,4.96,1.24,1.95,1.77,4.08,1.95,6.03h-6.38c0-1.24-.53-2.3-1.24-3.37-.71-1.06-1.77-1.95-3.01-2.66s-2.84-1.06-4.61-1.06-3.9.53-5.5,1.6c-1.6,1.06-2.66,2.3-3.55,4.08s-1.24,3.72-1.24,5.85.35,4.08,1.24,5.85,1.95,3.19,3.55,4.08c1.6,1.06,3.37,1.6,5.5,1.6s3.37-.35,4.61-1.06c1.24-.71,2.31-1.6,3.01-2.66.71-1.06,1.06-2.3,1.24-3.37h6.38c0,1.95-.89,4.08-1.95,6.03s-2.84,3.72-5.14,4.96-4.96,1.95-8.33,1.95-6.38-.71-8.87-2.3c-2.48-1.6-4.43-3.55-5.67-6.21s-1.95-5.5-1.95-8.69.71-6.21,1.95-8.69v-.35Z"/>
      <path class="cls-1" d="M1848.53,667.75c2.48,1.6,4.43,3.55,5.85,6.21s1.95,5.5,1.95,8.69-.71,6.03-1.95,8.69c-1.42,2.66-3.37,4.61-5.85,6.21s-5.5,2.3-8.87,2.3-6.38-.71-8.87-2.3c-2.48-1.6-4.43-3.55-5.85-6.21s-1.95-5.5-1.95-8.69.71-6.03,1.95-8.69c1.42-2.66,3.37-4.61,5.85-6.21s5.5-2.3,8.87-2.3,6.38.71,8.87,2.3ZM1845.16,692.57c1.6-1.06,2.66-2.3,3.55-4.08s1.24-3.72,1.24-5.85-.35-4.08-1.24-5.85-1.95-3.19-3.55-4.08-3.37-1.6-5.5-1.6-3.9.53-5.5,1.6-2.84,2.3-3.55,4.08c-.89,1.77-1.24,3.72-1.24,5.85s.35,4.08,1.24,5.85,1.95,3.19,3.55,4.08c1.6,1.06,3.37,1.6,5.5,1.6s3.9-.53,5.5-1.6Z"/>
      <path class="cls-1" d="M1892.5,665.8c4.43,0,7.8.89,9.93,2.84,2.13,1.77,3.19,4.26,3.19,7.45s-.71,3.72-2.13,5.32-3.55,2.48-6.03,3.01c-.35,0-.53.35-.53.53s0,.53.53.53c1.42,0,2.66.35,3.55.89s1.6,1.06,1.95,1.6.71,1.42,1.06,2.3l3.19,9.04h-7.45l-1.77-6.74c-.35-1.42-.71-2.48-1.24-3.19-.53-.71-1.06-1.24-2.13-1.6-.89-.35-2.31-.53-3.9-.53h-5.14v12.23h-6.56v-33.51h13.65l-.18-.18ZM1897.12,680.34c1.42-.89,2.13-2.13,2.13-3.55s-.53-3.01-1.6-3.9-2.48-1.42-4.26-1.42h-7.8v10.28h6.56c1.95,0,3.72-.53,5.14-1.42h-.18Z"/>
      <path class="cls-1" d="M1952.08,668.1c2.48,1.6,4.43,3.55,5.67,6.03s1.77,5.32,1.77,8.51-.53,5.85-1.77,8.51-3.01,4.61-5.67,6.03c-2.66,1.6-5.85,2.3-9.75,2.3h-12.59v-33.51h12.59c4.08,0,7.27.71,9.93,2.3l-.18-.18ZM1948.36,692.22c1.6-1.06,2.66-2.3,3.37-4.08.71-1.6,1.06-3.55,1.06-5.5s-.35-3.72-1.06-5.5-1.95-3.01-3.37-4.08c-1.6-1.06-3.37-1.6-5.5-1.6h-6.74v22.16h6.74c2.13,0,4.08-.53,5.5-1.6v.18Z"/>
      <path class="cls-1" d="M1988.43,671.65v8.33h14.18v5.32h-14.18v8.33h17.2v5.67h-23.58v-33.51h23.58v5.67h-17.2v.18Z"/>
    </g>
    <g>
      <path class="cls-1" d="M270.6,304.48c3.54,0,7.34,6.15,7.67,9.44.44,4.3-1.1,14.14-2.81,18.18-1,2.37-9.15,16.05-10.64,16.99-4.05,2.54-9.93-.44-12,.15-.89.25-1.26,1.11-1.32,1.98.33,35.75,2.44,71.39,6.5,106.85,6.12-.79,15.2-3.6,20.72,0,5.27,3.44,17.94,21.36,22.19,27.38,14.73,20.88,26.17,43.16,38.66,65.36.79,1.4.63,3.22,1.72,4.78,2.21,3.17,9.7,5.19,12.5,10.3,1.47,2.68-.9,4.19.86,6.42,1.37.97,6.48-.92,8.34-1.51,3.13-.98,16.21-5.63,18.14-7.05,5.67-4.2,4.49-19.84,11.73-21.56,20.91-4.98,16.36,23.39,11.19,34.73-4.91,10.76-10.04,13.92-17.28,21.72-4.97,5.36-2.6,7.92-4.26,13.62-1.73,5.94-8.63,12.11-12.95,15.91-1.03.91-1.25,2.69-3.19,3.71-4.76,2.52-8.75-.71-12.12-3.92-3.54-3.36-20.89-21.48-21.76-24.55-.7-2.46-.06-6.01-1.29-7.65-1.65-2.2-3.54-.1-5.19-.46-1.05-.23-7.53-8.44-8.06-9.85-.73-1.96-.42-3.77-1.01-5.5-2.47-7.26-24.09-17.48-27.68-26.76-.63-1.62-.31-3.35-1.3-5.2-.31-.59-8.21-9.2-8.88-9.81-1.22-1.13-14.5-6.74-15.98-6.82l-1.78,1.22c1.19,14.57,3.37,29.1,3.16,43.75-.05,3.12-1.61,4.32-.05,8.2.46,1.15,6.68,9.21,7.78,10.09,3.71,2.97,9.68,3.9,13.68,6.64,7.8,5.34,7.38,16.63,9.89,25.05,10.56,35.46,20.08,63.82,38.74,96.15,1.15,2,10.76,16.31,11.61,16.89,2.29,1.55,6.12-2.69,9.41.5,3.48,3.37-.62,9.53,3.84,14.04,2.17,2.19,18.6,12.88,21.56,13.96,8.64,3.17,19.37-1.62,24.81,7.69,2.5,4.28,3.02,13.33-.67,16.97-9.39,9.27-32.56,9.84-44.54,6.3-3.01-.89-8.55-4.17-11.15-4.18-4.5-.02-5.89,4.7-8.3,5.41-6.18,1.81-27.16-3.14-29.88-9.6-3.34-7.94,8.42-22.16,4.65-31.47-.74-1.83-3.39-3.4-4.6-5.15-1.58-2.3-3.02-5.93-4.53-7.66-1.73-1.99-4.4-2.93-6.38-5.81-6.55-9.5-7.97-23.17-16.8-31.96-1.23-1.22-13.42-10.63-14.21-9.75-.51,8.25-1.24,16.47-.81,24.77.98,18.76,4.6,38.25,6.48,56.9,1.66,16.34,2.17,33.25,4.08,49.55,1.18,10.06,3.66,20.02,4.88,30.06l-2.05.44c-1.54-2.93-3.37-5.47-4.24-8.78-4.74-18.06-4.75-44.75-6.73-63.96-2.21-21.44-5.66-42.64-6.53-64.17-.64-15.92,3.2-27.71-6.1-41.85-2.49-3.78-7.98-5.36-10.13-8.56-1.99-2.96-2.16-7.11-4.99-10.45-1.87-2.22-5.35-4.57-7.62-7.01-1.41-1.51-1.79-3.58-3.21-4.92-3.66-3.45-11.44-3.48-15.63-5.5-5.62-2.7-6.54-15.53-9.82-21.06-.68-1.15-7.06-8.7-7.86-9.2-2.76-1.72-25.76-6.27-27.24-4.85-.29,3.06,4.6,11.44,3.15,13.7-2.03,3.14-4.35-1.34-5.16-3.16-1.56-3.48-2.37-7.61-3.88-11.15-1.61-1.86-10.13.01-12.68.72-1.84,6.53,2.81,7.83,5.47,12.58,4.63,8.26,7.3,20.93,11.33,30.11,1.38,3.15,9.85,17.99,9.84,19.37-.04,4.64-10.92,11.35-14.94,10.95-1.99-.19-3.12-2.68-5.32-2.43.47,10.19,1.64,19.95-.36,30.11-.89,4.52-5.13,12.61-5.27,15.86-.18,4.05,3.28,14.34,3.91,19.54,1.32,11,2.4,26.66-3,36.61-5.59,10.29-14.53,6.47-18.98-2.43-3.13-6.26-5.27-24.05-3.53-30.65,1.74-6.6,17.12-18.8,17.54-24.77.28-3.92-3.74-11.85-5.85-15.31-.73-1.21-2.37-1.55-3.33-3.17-.44-.75-2.8-10.99-3.87-9.53-1.21,10.91,5.76,23.79-2.02,33.33-6.33,7.77-21.22,7.23-23.62-4.03-2.16-10.11,11.06-29.56,11.07-42.71,0-6.33-2.6-13.15-2.55-19.51.04-5.06,1.63-11.11,2.56-16.12-4.98-1.83-6.11-7.28-11-8.65-3.99,9.74-5.93,20.41-9.35,30.49-1.82,5.35-6.34,12.99-7.13,18.06-.71,4.49,1.53,16.82.24,18.92-1.25,2.04-3.48-1.27-5.54-.73-1.69.44-3.33,4.11-6.4,5.05-7.79,2.38-17.55,2.29-24.85-.89-1.21-.53-2.09-1.75-3.05-2.62-9.44,10.21-13.59,21.05-15.73,34.64-3.12,19.86-4.78,40.11-7.44,60.01-2.51,18.82-5.26,37.74-8.12,56.48-2.15,1.51-3.11-4.92-3.23-6.1-1.51-14.76,3.56-31.11,5.57-45.6,2.21-16.01,4.12-31.89,6.51-47.93,2.91-19.54,1.87-35.31,15.94-51.51,3.59-4.14,7.95-5.02,7.79-10.96-.2-7.95-3.24-18.01-8.59-23.98-1.63-1.81-6.63-4.84-6.97-5.42-.24-.41-2.79-8.53-2.85-9.16-.57-5.4,7.52-12.45,6.88-14.9-4.27-6.11-13.03-14.37-15.13-21.51-1.77-6.02-.58-14.01-1.89-20.05-.65-3.02-2.68-5.42-3.11-9.08-.38-3.15-.55-12.23.35-14.91.65-1.93,3.35-3.71,4.31-5.44,6.17-11.1-4.96-27.6-5.49-39.82-.31-7.17,3.04-20.17-2.79-26.01-3.7-3.71-7.01-1.42-7.11-8.81-.13-9.7-.6-6.32-3.59-14.22-1.77-4.67-2.04-10.43-3.43-15.26-1.3-4.51-6.99-15.48-7.13-18.45-.04-.87.48-1.9.42-2.84,2.94-2.54,8.18,7.53,9.52,9.55.56.84.72,2.16,1.44.2,1.29-3.51.12-9.42,1.85-14.4,2.66-7.7,13.17-19.05,14.48-26.22,1.12-6.13-3.58-12.82-.93-20.37.68-1.95,2.49-2.68,3.22-4.08,1.75-3.38-.36-6.87,5.52-6.28,4.15.41,21.97,4.41,26.01,5.75,3.93,1.3,4.98,1.99,9.78,3.22,1.63.42,7.5,5.88,8.72,2.64.71-1.9-.42-1.7-1-2.28-4.45-4.48-6.77-7.22-9.39-13.32l-3-30.29,17.87-12.18c3.08,2.59,2.05,7.61,4.07,10.53,1.54,2.22,7.98,5.19,10.53,7.34,8.09,6.83,0,6.91-.39,10.96-.08.89,1.5,13.78,1.81,15.25.91,4.32,5.1,6.83-1.77,10.78-7.57,4.36-17.64-.96-15.47,11.75,13.07-4.34,22.79,4.46,30.88,13.4,1.2.73,12.13-.14,14.05-.57,6.83-1.5,7.71-12.73,11.26-17.18,1.95-2.44,4.18-2.44,5.76-4.81,3.37-5.08,5.44-17.04,8.35-23.34,3.03-6.55,7.34-10.8,14.86-11.55.81-6.39,2.02-16.09,3.41-27.88,1.98-16.77,3.47-30.46,4.7-42.52,5.4-52.98,5.27-61.74,9.1-94.69,3.31-28.48,7.41-54.38,15.6-106.18.38-2.39,3.14-19.83,6.85-42.95,1.83-11.39,3.34-20.77,4.36-27.07C215.36,6.56,217.02-.08,217.44,0c.6.11-1.33,13.94-5.8,41.47-1.03,6.76-2.51,16.46-4.24,28.12-3.6,24.16-7.1,48.4-8.79,60.63-4.18,30.27-6.46,53.13-9.66,85.23-2.34,23.4-9.64,96.14-14.65,145.93,6.35-2.16,12.69-1.06,16.53,2.61,1.81,1.73,3.08,4.24,3.57,7.76.45,3.24-.5,5.49-.34,7.81.14,1.99,1.5,3.68,1.43,6.61-.29,12.62-11.94,12.27-17.58,20.68-.19,6.62,1.02,13.28.44,19.94-.49,5.63-3.04,10.99-3.23,16.67.6.63,9.46-2.66,10.21-4.05,1.09-2.02-.84-2.64-1.13-3.89-.53-2.26,12.63-22.97,14.79-27.1,7.95-15.26,15.47-30.4,23.63-45.44,3.01-5.55,9.03-16.92,12.76-21.37,1.77-2.12,5.38-3.34,5.97-4.59.68-1.43.35-3.59,1.02-5.48,1.93-5.43,5.12-9.52,6.27-10.79,7.97-8.87,7.75-66.89,8.84-90.34.83-17.9,4.66-38,12.3-78.2,3.21-16.88,6.3-31.22,8.79-42.17C287.6,57.25,297.64,0,298.78.18c.84.13-3.18,31.1-7.03,57.11-16.22,109.71-32.14,150.16-32.97,231.32-.07,6.95-.01,12.58.03,15.88h11.78ZM262.67,309.55c-2.71-2.9-6.55,2.79-3.74,4.57,2.63,1.66,6.75-1.35,3.74-4.57ZM186.52,460.88c2.64,1.57,5.69.87,7.65,2.92,2.55,2.67,2.97,12.12,8.29,14.46l50.27-19.37-4.51-58.07-.78-52.44-2.81.84c-8.52,14.48-19.15,27.85-27.39,42.5-8.54,15.19-12.79,34.62-21.42,50.09-1.63,1.94-2.08-2.42-4.44-1.25-4.99,3.8-3.75,10.99-11.38,11.84-.68.9,5.28,7.75,6.53,8.49ZM174.31,432.06l-.78-23.83c-1.54-1.77-3.76-1.34-5.27.32-3.23,3.54-.99,6.79-1.22,10.95-.28,4.86-2.63,9.28-.85,14.2l8.12-1.63ZM37.15,433.46c18.65-5.96,34.57,1.72,50.13,11.27,2.81,1.73,8.77,6.71,11.15,7.56,1.46.52.94-.32,1.33-.92.86-1.31,3.9-6.36,3.93-7.53l-.23-1.08c-18.44-11.31-44.11-26.04-66.23-17.35-7.2,2.83-11.2,6.3-13.26,13.95,4.74-.84,8.37-4.37,13.18-5.91ZM158.05,450.75c5.07.21,7.03-7.85,6.5-11.78l-1.61-.4c-1.24,4.32-5.72,7.31-4.89,12.18ZM169.01,446.49c3.15.29,3.72-4.85.79-5.48-2.34-.5-3.85,5.2-.79,5.48ZM103.57,455.25l3.83,3.55,6.66-9.4-4.36-4.31-6.13,10.17ZM112.9,462.95l26.93,21.96c2.59.23,7.54-5.12,5.29-7.79-7.95-5.77-14.71-13.96-22.44-19.84-1.23-.94-4.75-4.13-6.03-3.24-.02,3.04-5.16,6.33-3.75,8.91ZM175.12,486.1c0,.2,2.38,2.55,3.03,2.73,2.99.82,13.87-5.46,14.11-9.22.58-9.12-8.77-8.08-13.03-11.43-1.63-1.28-1.65-4.5-4.11-5.24v23.16ZM137.77,535.68c8.33-8.01,12.24-15.72,18-25.05,3.98-6.45,8.68-12.45,13.25-18.48l-2.04-10.52c-13.64,15.57-23.42,34.49-40.26,47.13-1.03,1.4,4.92,10.15,5.44,10.45,1.84,1.06,4.34-2.3,5.62-3.53ZM231.06,538.8l-33.34-44.83c-1.29-.76-5.11.59-5.49,2,6.73,17.94,20.03,32.39,31.77,47.3,1.93,1.12,6.1-2.76,7.06-4.47ZM188.07,553.91c4.05-18.55,13.75-7.26,24.07-4.88,3.42.79-1.15-3.38-1.82-3.87-6.25-4.64-15.04-8.38-22.9-7.57l-9.81-33.66c-.61-3.28-3.87-1.77-3.91.67-.08,4.63,1.61,12.96,2.37,17.93.83,5.45,3.66,14.17,3.63,18.97-.02,3.89-2.72,6.35-2.95,10.01l11.33,2.4ZM255.97,528.77c-5.76,10.3-16.84,14.37-25.86,21.27-1.06.81-4.85,3.06-4.59,4.26l34.09,26.47-3.64-52ZM99.9,549.89c-.74,1.18,4.21,10.6,7.79,9.43,2.89-.94,18.71-12.66,19.95-15.13l-5.35-10.54-22.39,16.24ZM119,569.84c7.87,2.52,23.25-10.61,21.94-19.49-.5-3.38-4.79-8.67-5.36-4.13-.25,2,2.92,5.09,1.18,8.73-1.29,2.69-11.9,12.09-14.75,11.83-2.92-.27-4.13-4.17-4.76-4.52-5.36-2.97-2.87,6.1,1.75,7.58ZM66.3,581.89c2.18,10.59,4.01,21.29,5.39,32.02.22,1.72-.67,3.58-.41,6.05.18,1.72,2.47,11.87,3.08,13.01.52.97,2.3,1.43,3.26,2.63,1.89,2.36,2.05,6.02,1.56,8.93-.36,2.11-1.9,3.01-2.23,4.31-.67,2.62,3.33,10.54,4.33,13.99,2.38,8.19,1.08,13.78,9.72,19.51,3.03-.02,13.91-41.51,15.68-46.93.37-5.32-8.82-9.77-8.86-13.59-.05-4.75,9.21-2.85,10.51-7.5.97-3.46-3.34-11.86-3.84-16.15-.83-7.06.39-14,3.87-20.12-6.17-5.12-13.06-5.5-18.57-12.32-7.01-8.69,1.93-7.84,3.99-15.75l-12.94-5.76c-2.57,13.28-10.85,24.79-14.56,37.69ZM185.66,558.85c-3.97.29-11-5.33-12.64-.06-1.4,4.52,8.28,4.69,11.73,4.79l.9-4.74ZM168.01,596.41c2.38,10.38,7.39,6.66,16.04,8.74-2.23-11.58-1.68-23.16-.89-34.86l-13.67-2.46c-2.03,9.34-3.65,19.08-1.48,28.58ZM111.76,595.03c.09,4.08-3.71,11.55,2.71,12.44,5.09-2.94,6.05-22.31,2.63-25.15-1.39-1.15-4.79-.92-5.99.28-2.86,2.86.58,9.25.65,12.44ZM135.31,617.73c-.49-8.63,3.23-11.81-4.09-19.48-1.61-1.68-3.03-3.47-4.7-.67-3.12,5.22,3.15,15.44,3.83,21.04.67,5.51-1.69,9.01-1.62,13.75.05,3.31,1.78,6.77,1.69,10.16,13.41-4.47,5.43-15.42,4.89-24.79ZM146.24,644.18c.75,2.5,4.01,5.48,4.25,7.79.32,3.08-3.83,10.58,1.05,12.9,7.76,3.69,11.81-5.96,11.38-12.17-.2-2.87-4.19-18.29-5.5-20.52-.94-1.59-3.06-2.94-4.85-3.29-8.27-1.62-7.97,9.86-6.33,15.29ZM143.41,691.28c.31-1.52.9-2.7.79-4.35-.13-1.98-3.62-16.73-4.43-17.59-.96-1.01-1.55-.92-2.84-.81-1.77,2.32,4.43,24.3,6.49,22.75ZM171.03,673.81c.82,3.76,4.7,3.3,5.76.01l-2.89-3.63-2.87,3.62ZM126.14,686.59c-2.9,6.8-6.3,16.62-8.73,23.77-3.91,11.5-6.95,24.13,10.77,18.89,14.36-4.24.44-23.86-.01-32.95-.19-3.88,1.37-8.03-.19-12.34-1.41.22-1.41,1.62-1.84,2.62ZM146.89,692.29c.17,6.3,5.03,1.98,2.43-4.06-.5-1.15-.2-1.22-1.83-1.01.08,1.75-.64,3.31-.6,5.07ZM153.57,696.14c-.81,1.84-4.14,2.85-4.73,4.27-1.95,4.67-.14,11.73,2.52,15.83.51.79-.09,1.46,1.81,1.04.51-.46,3.26-10.74,3.26-11.78v-17.47c-3.62-.14-1.8,5.69-2.86,8.11ZM154.83,768.92c.39-6.14-.96-17.11-1.65-23.59-.42-3.91-1.34-7.85-1.63-11.78-1.6-.42-1.57.66-2.28,1.37-3.83,3.77-13.87,15.91-14,21.01-.14,5.39,2.07,17.4,4.59,22.24,1.67,3.21,6.15,8.63,9.84,5.52,2.34-1.97,4.93-11.51,5.14-14.75Z"/>
      <path class="cls-2" d="M83.25,324.44c3.37,1.74,6.74.29,5.36,5.26-.65,2.35-2.43,4.07-4.24,5.53-11.65,9.31-31.87,16.87-42.53,26.54-5.67,5.15-4.08,11.38-7.77,17.42-1.43,2.35-11.08,12.12-13.63,11.37-2.48-3.84-5.56-6.03-7.98-9.95-10.9-17.68-14.94-37.61-.65-54.56,11.9-14.11,24.89-17.96,43.24-15.66,12.8,1.61,18.17,8.87,28.2,14.05ZM40.14,328.52c5.07,5.06,13.11-4.11,6.82-6.01-3.92-1.18-9.07,1.81-6.82,6.01ZM33.35,329.71c.7-1.41.86-4.21-.96-4.82-6.6-2.21-9.5,10.79.96,4.82ZM55.61,335.01c8.45,7.2,12.5-7.03,5.16-9.23-5.46-1.64-10.17,4.96-5.16,9.23ZM21.52,333.38c-.93-4.17-7.57.69-6.48,3.61,1.64.68,6.86-1.9,6.48-3.61ZM16.46,372.54c3.69,8.46,11.43-2.46,5.63-6.86-3.67-2.78-7.83,1.82-5.63,6.86Z"/>
      <path class="cls-1" d="M61.34,355.68c-4.63-.03-.96,7.84-3.19,9.39-4.41,1.48-11.13-2.86-14.71,1.55-3.02,3.73.11,9.71-3.97,13.12l.3,1.15c.6.78,16.85,5.4,18.8,5.61,5.46.59,7.04-1.55,6.83-6.83-.3-7.29-3.36-16.5-4.07-23.99Z"/>
    </g>
  </g>
</svg>