<?xml version="1.0" encoding="UTF-8"?>
<svg id="Calque_2" data-name="Calque 2" xmlns="http://www.w3.org/2000/svg" viewBox="0 0 1096.89 301.26">
  <defs>
    <style>
      .cls-1 {
        fill: #243355;
      }

      .cls-2 {
        isolation: isolate;
      }

      .cordiste-anim {
        transform-origin: 125px 25px;
        transform-box: fill-box;
        animation: cordiste-swing 5s ease-in-out infinite;
      }

      @keyframes cordiste-swing {
        0%, 100% { transform: rotate(-4.5deg); }
        50%      { transform: rotate(4.5deg); }
      }

      @media (prefers-reduced-motion: reduce) {
        .cordiste-anim { animation: none; }
      }
    </style>
  </defs>
  <g id="Calque_1-2" data-name="Calque 1">
    <g id="Calque_2-2" data-name="Calque 2">
      <g id="Carte_de_visite_UE_Recto" data-name="Carte de visite UE Recto">
        <path class="cls-1 cordiste-anim" d="M95.06,183.32c.84,0,1.1.65,1.48,1.29.42.61.87,1.19,1.36,1.74.58.65,1.42,1.16,1.68,1.94,1.1,2.78,2,5.68,3.03,8.52.24.43.63.75,1.1.9,2.26.77,4.58,1.48,6.84,2.32.71.23,1.29.74,1.61,1.42.48,1.15,1.29,2.14,2.32,2.84.88.68,1.7,1.44,2.45,2.26.65,1.08,1.17,2.23,1.55,3.42,0,.39,0,.9.45,1.1s2.13,1.68,3.23,2.52c.61.43,1.16.95,1.61,1.55.52.9.65,2.07,1.29,2.78,1.33,1.55,1.96,3.58,1.74,5.62v17.82c0,3.87.77,7.68,1.16,11.49,0,2.39.45,4.84.77,7.23s.58,2.78.71,4.2c.39,4.71.71,9.42,1.1,14.14.32,3.62.77,7.29,1.16,10.91,0,2,.45,3.94.77,5.87,0,.9.32,1.87.52,2.78l.71,1.03c.44.71.78,1.47,1.03,2.26.28-.32.59-.62.9-.9,0-.77-.32-1.48-.45-2.19-.52-3.1-1.16-6.46-1.61-9.36s0-4.39-.32-6.46-.71-6.07-1.1-9.1c-.54-2.53-.82-5.1-.84-7.68.16-1.46.16-2.93,0-4.39-.39-2.65-.97-5.23-1.23-7.88s-.39-5.62-.58-8.39-.84-6.46-.97-10.01,0-6,0-9.04c0-.9,0-1.81.32-2.78,2.26,1.68,4.39,3.03,6.46,4.71,1.39,1.32,2.57,2.84,3.49,4.52,1.29,2.39,2,4.97,3.16,7.42.67,2.58,2.2,4.85,4.33,6.46.36.27.65.62.84,1.03.79,1.79,1.99,3.38,3.49,4.65.67.64,1.12,1.48,1.29,2.39.09.96-.05,1.93-.39,2.84-.71,2.39-1.55,4.84-2.39,7.17s-.52,4,2.39,5.75c3.53,1.85,7.51,2.67,11.49,2.39.59-.11,1.1-.46,1.42-.97.96-1.39,2.76-1.92,4.33-1.29,3.15,1.65,6.64,2.54,10.2,2.58,3.79.19,7.58-.45,11.1-1.87l2.13-1.16c1.99-.63,3.25-2.57,3.03-4.65-.07-.38-.07-.78,0-1.16.09-2.54-1.48-4.84-3.87-5.68-1.36-.52-2.82-.7-4.26-.52-2.33.15-4.63-.56-6.46-2-2.45-1.61-4.91-3.36-7.42-4.97-1.42-.72-2.19-2.31-1.87-3.87.07-.54.07-1.08,0-1.61-.39-2.07-1.61-2.78-3.68-2.19-.29.16-.59.29-.9.39h-.84c-.13,0-1.1-1.81-1.68-2.71l-3.74-5.55-.9-1.61c-.54-1.53-1.19-3.02-1.94-4.45-1.8-2.69-3.42-5.49-4.84-8.39-.39-.77-.71-1.55-1.03-2.39-.21-.84-.49-1.66-.84-2.45-1.19-1.7-2.04-3.6-2.52-5.62-.16-.93-.49-1.83-.97-2.65-.76-1.31-1.24-2.76-1.42-4.26-.32-2.69-.97-5.34-1.94-7.88-1.49-3.87-2.64-7.87-3.42-11.94-.42-2.33-1.84-4.35-3.87-5.55-1.16-.65-2.52-1.03-3.68-1.61s-3.49-1.42-3.81-3.62c-.16-.43-.48-.78-.9-.97-1.4-.86-2.06-2.55-1.61-4.13.19-2.04.19-4.09,0-6.13-.45-5.42-1.03-10.91-1.48-16.33,0,0,.45-.77.58-.71l5.29,1.87c1.03.45,2.07,1.03,3.03,1.55s.65.32.65.52c0,1.48,1.36,2.13,2.32,2.97s2.13,1.81,1.94,3.49c.06.39.24.75.52,1.03.39.45.9.84,1.36,1.29,1.67,1.88,3.46,3.64,5.36,5.29,1.81,1.36,4,2.13,5.29,4.13.74.77,1.18,1.78,1.23,2.84-.13.44-.13.91,0,1.36.97,1.23,1.94,2.39,2.97,3.49s1.16,1.36,2.19.58c.38-.08.77.04,1.03.32.44.55.67,1.23.65,1.94-.26,1.64.3,3.3,1.48,4.45,3.42,3.62,6.91,7.23,10.39,10.72,1.35,1.37,3.56,1.38,4.93.03.36-.36.64-.78.82-1.26.71-.39,1.61-.58,1.68-1.03s.97-1.23,1.48-1.81c.36-.53.66-1.09.9-1.68h.45c.97-1.16,1.03-2.9,2.19-4,0,0-.32-.45-.32-.71-.15-.55-.15-1.13,0-1.68.59-1.7,1.69-3.17,3.16-4.2,1.37-1.19,2.61-2.53,3.68-4,.32-.39,0-1.23.58-1.55,1.72-1.81,2.94-4.03,3.55-6.46,1.58-4.05,1.58-8.54,0-12.59,0,0,0-.65-.58-.71-1.24-.52-2.54-.87-3.87-1.03-1.72-.19-3.35.82-3.94,2.45-.39,1.29-.65,2.58-1.1,3.81s-1.36,2.97-1.94,4.33l-1.61.39c-3.42,1.23-6.46,2.52-10.2,3.68h-1.55c-.26,0-1.1-1.16,0-1.94.15-.35.15-.75,0-1.1-.65-.77-1.48-1.48-2.19-2.19-1.48-1.74-4.58-2-4.52-5.1l-.32-.39c-.41-.36-.74-.8-.97-1.29-1.1-2.07-2.07-4.13-3.16-6.46s-2.97-5.36-4.52-8-2.84-4.45-4.2-6.46-1.48-3.03-2.39-4.39c-2.78-3.87-5.62-7.81-8.52-11.62-1.49-2.05-3.13-3.99-4.91-5.81-.93-.82-2.12-1.28-3.36-1.29-2.3.15-4.58.45-6.84.9-.15-.7-.26-1.41-.32-2.13,0-2.9-.32-5.81-.58-8.71-.39-4.97-1.03-9.88-1.29-14.78-.39-8.78-.58-17.49-.84-26.27,0-1.03.39-1.16,1.23-1.03,1.25.09,2.5.09,3.74,0,.73-.02,1.41-.35,1.87-.9,1.09-1.46,2.08-2.99,2.97-4.58.94-1.31,1.7-2.75,2.26-4.26.51-2.25.79-4.54.84-6.84.14-2.56-1.82-4.76-4.38-4.9-.09,0-.18,0-.27,0h-4.78v-1.94l.97-17.82c0-2.52.32-4.97.52-7.42s.45-3.62.65-5.49,0-2.19-1.87-2c-.32,3.29-.77,6.46-.97,9.81-.32,5.16-.52,10.33-.77,15.43,0,2.84-.32,5.62-.45,8.39.07.28.07.56,0,.84,0,.58-.77,1.1-.84,1.68-.39,3.41-1.56,6.68-3.42,9.55-1.16,1.13-1.73,2.72-1.55,4.33,0,0-1.03,1.29-1.48,1.29s-1.61.71-2.13,1.48c-1.74,2.84-3.49,5.75-5.16,8.65-1.79,3.86-3.95,7.54-6.46,10.97-1.2,1.52-2.2,3.19-2.97,4.97-1.42,2.84-2.52,5.87-4.07,8.65s-4,6.46-6,10.01c-.61.82-.61,1.95,0,2.78.58.84,0,1.48-.77,1.68-.84.22-1.66.5-2.45.84l-1.68.71c-.16-1.34.01-2.69.52-3.94,1.03-4.03,1.23-8.22.58-12.33-.38-1.22.06-2.55,1.1-3.29,1.29-.84,2.65-1.74,4-2.45,2.91-1.76,4.2-5.31,3.1-8.52-.16-.46-.16-.96,0-1.42.72-3.49-1.52-6.91-5.01-7.63-1.13-.23-2.29-.16-3.38.21-.43.19-.92.19-1.36,0-.17-.39-.17-.84,0-1.23.32-3.74.71-7.49,1.03-11.23s.32-5.68.45-8.52c.32-4.84.71-9.68.97-14.52,0-3.74.45-7.55.65-11.3s.39-4.71.58-8,0-5.75.32-7.49c-.17-.04-.35-.04-.52,0-.41-.06-.82.08-1.1.39,0,1.94-.39,5.42-.52,7.36-.32,4.52-.39,5.36-.45,6.46s0,4.26-.32,6.46,0,4.58-.45,6.84-.45,2.65-.52,3.94c-.32,5.75-.45,11.43-.77,17.17,0,4.26-.84,8.59-1.23,12.91,0,.9-.58,1.36-1.48,1.29-.53-.12-1.08-.12-1.61,0-2.18,1.07-3.88,2.91-4.78,5.16-1.23,3.03-2.13,6.13-3.23,9.17-.27,1.33-1.12,2.47-2.32,3.1-.63.35-1.13.89-1.42,1.55-.84,1.55-1.29,3.23-2.19,4.71-.78,2.11-2.95,3.36-5.16,2.97-.75-.05-1.5.06-2.19.32-1.81.52-2.32,0-3.36-1.16-.35-.5-.82-.92-1.36-1.23-.86-.57-1.68-1.2-2.45-1.87-2.07-2.4-5.32-3.42-8.39-2.65l-1.94.71v-2.9c0-.9,0-1.87,1.68-1.81,1.98.08,3.95-.39,5.68-1.36,1.48-.51,2.27-2.13,1.75-3.61-.18-.51-.49-.96-.91-1.29-.16-.44-.16-.92,0-1.36v-1.87c0-.45-.65-1.23,0-1.94.13-.35.13-.74,0-1.1-.77-1.16-.45-1.94.52-2.78.91-.56,1.19-1.76.63-2.67-.16-.25-.37-.47-.63-.63-1.74-1.36-3.55-2.58-5.42-3.81-.83-.51-1.32-1.42-1.29-2.39-.14-.71-.35-1.4-.65-2.07-.16-.53-.16-1.09,0-1.61.52-1.42,1.23-2.71,1.87-4.07s-.26-1.87-1.16-1.87c-2.17-.47-4.18-1.52-5.81-3.03-1.35-.99-2.78-1.87-4.26-2.65-4.06-1.76-8.52-2.38-12.91-1.81-1.8.14-3.55.63-5.16,1.42-3.25,1.66-6.11,3.99-8.39,6.84-2.09,2.33-3.5,5.19-4.07,8.26-.57,5.52.63,11.08,3.42,15.88,0,.52.45,1.1.77,1.61.26.61.58,1.2.97,1.74.9,1.29,2.52,2,2.9,3.68,0,0,.84.52,1.1.32s1.87-1.29,2.78-1.94l.97-.84h.45c-.08.98-.32,1.94-.71,2.84-1.63,2.22-2.02,5.11-1.03,7.68.23.8.41,1.62.52,2.45.02,1.72-.52,3.4-1.55,4.78-1.42,2.58-3.03,5.1-4.45,7.68-.52.79-.89,1.66-1.1,2.58v5.1c-.11.53-.29,1.05-.52,1.55-1.29-1.87-2.32-3.42-3.42-4.91,0-.39-.84-.45-1.29-.71s-.71,1.29-.58,1.74,1.03,2.32,1.55,3.55c.52,1.23,1.36,3.42,1.94,5.16.28.82.49,1.66.65,2.52,0,1.29.52,2.52.84,3.74.08.69.32,1.36.71,1.94,1.29,1.23,1.87,3.03,1.55,4.78.03.58.03,1.16,0,1.74-.16,1.19.54,2.32,1.68,2.71,1.58.72,2.71,2.17,3.03,3.87.25,2.14.25,4.31,0,6.46-.27,2.16-.12,4.35.45,6.46.61,2.64,1.43,5.23,2.45,7.75.84,2.2.84,4.64,0,6.84-.35.82-.88,1.54-1.55,2.13-.74.67-1.13,1.65-1.03,2.65v6.46c0,.42.14.83.39,1.16.7.98,1.07,2.15,1.03,3.36,0,2.78.52,5.49.77,8.26-.05.23-.05.48,0,.71,1.66,2.91,3.65,5.62,5.94,8.07.53.58.96,1.23,1.29,1.94l-1.03,1.29c-.39.58-.65,1.29-1.1,1.87-1.36,1.31-1.68,3.37-.77,5.04.26.39.44.83.52,1.29.06,1.05.71,1.97,1.68,2.39,1.23.73,2.22,1.81,2.84,3.1.42.51.81,1.05,1.16,1.61.29.33.5.73.58,1.16.45,2,1.03,4,1.29,6.07s.58,2.52-.65,3.49c-4.88,4.06-8.19,9.7-9.36,15.95-1.1,4.71-1.23,9.75-1.87,14.59,0,2.32-.58,4.58-.97,6.84-.58,2.11-.96,4.27-1.16,6.46-.08,5.11-.69,10.19-1.81,15.17-.32,2.19-.58,4.45-.9,6.46,0,0-1.03,7.29.52,9.36,0,0,.32.39.58.39s0-.71,0-.9c0-3.36,1.36-6.46,1.48-9.94,0-1.81.52-4.71,1.23-10.59.63-2.53,1.11-5.09,1.42-7.68.19-4.34.75-8.66,1.68-12.91.45-2.39.65-4.84.97-7.23s.45-5.62.9-8.39c.56-3.6,1.81-7.07,3.68-10.2,1.1-1.81,2.45-3.42,3.81-5.29.74,1.4,2.23,2.24,3.81,2.13h.65c.45,0,.9.71,1.36.65,2.13,0,4.2-.71,6.46-.77,1.67-.02,3.21-.87,4.13-2.26.58-.71,1.03-.84,1.74,0s1.61,0,1.61-.58c-.07-1.23-.19-2.46-.39-3.68-.19-1.39-.19-2.8,0-4.2.47-1.65,1.1-3.25,1.87-4.78.84-2.19,1.74-4.39,2.45-6.46,1.03-3.29,1.81-6.46,2.84-10.01s.84-2.39,2.78-.58,1.81,2.65,3.74,2.65c0,.52-.32.97-.39,1.42-.67,1.93-1.17,3.92-1.48,5.94.03,1.75.18,3.5.45,5.23v.84c.46,1.73.63,3.51.52,5.29-.69,2.98-1.58,5.91-2.65,8.78-.77,2.19-1.81,4.26-2.39,6.46-.35,1.33-.35,2.73,0,4.07.58,1.85,2.15,3.23,4.07,3.55,2.66.46,5.36-.53,7.1-2.58,1.06-1.16,1.59-2.7,1.48-4.26.13-2.38-.07-4.77-.58-7.1-.26-1.62-.26-3.28,0-4.91.33.28.6.63.77,1.03.97,1.74.45,4.26,2.78,5.36h0c.71,1.36,1.48,2.71,2.07,4.13s1.68,3.29,0,5.04-3.62,4.71-5.55,7.04c-1.74,1.69-2.69,4.03-2.65,6.46,0,2.19.39,4.45.58,6.46.17,2.76,1.29,5.39,3.16,7.42,1.31,1.69,3.75,1.99,5.44.68.42-.33.77-.73,1.02-1.2,1.04-1.92,1.78-3.99,2.19-6.13.16-1.46.16-2.93,0-4.39.09-5.23-.54-10.44-1.87-15.49-.25-.82-.25-1.7,0-2.52,1.69-2.94,2.85-6.15,3.42-9.49.19-3.55.19-7.1,0-10.65-.02-.34-.02-.69,0-1.03l.84.45c.58,0,1.23.97,1.68.9,2.5-.55,4.76-1.89,6.46-3.81.67-.76.67-1.89,0-2.65-3.44-5.65-6.2-11.7-8.2-18.01-.66-2.46-1.98-4.69-3.81-6.46-.21-.21-.35-.48-.39-.77v-2.9c1.68,0,3.16,0,4.65-.58s1.55,0,1.94,1.23,1.42,3.74,2.07,5.62c0,.77.77.97,1.36.65s.77-.71.45-1.55-1.1-3.29-1.68-5.04c1.79-.03,3.58.08,5.36.32,2.19.19,4.91.97,7.36,1.55ZM125.33,36.59c.78-.05,1.46.55,1.51,1.33,0,.12,0,.23-.02.35,0,.84-.45,1.16-1.23,1.16-.75.04-1.39-.53-1.43-1.27,0-.09,0-.18.01-.27,0-.77.32-1.36,1.16-1.29ZM52,183.58c-.43.44-.9.83-1.42,1.16l-1.03.45-1.55.45c-.7.13-1.17.8-1.04,1.5.06.33.25.63.52.82,1.1,1.23,2.32,2.45,3.42,3.74.33.49.43,1.11.26,1.68-.84,3.23-1.81,6.46-2.78,9.49s-1.68,5.49-2.58,8.2-1.36,3.42-2,5.16c-1.23-1.05-2.35-2.22-3.36-3.49-.63-1.07-1.02-2.26-1.16-3.49-.28-2.83-1.19-5.56-2.65-8-.2-.34-.2-.76,0-1.1,1.42-1.61,1.8-3.89.97-5.87-.14-.41-.44-.74-.84-.9-1.1,0-1.16-1.16-1.36-2.13-.26-1.47-.63-2.91-1.1-4.33-.09-.56-.09-1.12,0-1.68.36-1.99.21-4.03-.45-5.94-.07-.9-.07-1.81,0-2.71.06-.64.06-1.29,0-1.94-1.03-2.26-1.55-4.52-2.07-7.1,0-.57.16-1.13.45-1.61,1.94-4.33,3.94-8.71,5.81-12.91.3-.77.52-1.57.65-2.39,0-.71.39-1.03,1.1-.65,1.68.77,3.36,1.55,4.97,2.45.65.32.65.9,0,1.42s-1.42,1.74-2.26,2.52c-.71.59-.81,1.65-.22,2.36.07.08.14.15.22.22,1.39,1.83,3.18,3.31,5.23,4.33,1.16.45,2.32,1.1,3.49,1.55,1.16.45,1.1,1.16.58,1.74-.96,1.28-1.44,2.86-1.36,4.45-.16,1.85-.16,3.7,0,5.55,0,.58.52,1.16.71,1.81s.77,2.84,1.1,4.33c.19.32-.06.65-.26.84ZM56.32,178.03c-.16.31-.29.64-.39.97,0,.77-.45,1.29-1.29,1.1s-1.55-.71-1.42-1.74,0-2.65.45-4.45c0-.84-.45-2.07-.84-3.36-.26-1.23.39-2.47,1.55-2.97,1.42,0,2.32,0,2.71,1.87.58,2.88.31,5.86-.77,8.59ZM64.91,234.19c-.09,1.53-1.04,2.88-2.45,3.49-1.59.41-3.21.71-4.84.9-1.81,0-2.65-.97-2.78-2.71-.17-2.73.41-5.45,1.68-7.88,1.61-3.67,2.97-7.44,4.07-11.3.1-.33.23-.66.39-.97h0c.17.61.28,1.24.32,1.87.1,1.31.1,2.63,0,3.94.06,2.25.63,4.46,1.68,6.46,1.12,1.89,1.78,4.01,1.94,6.2ZM62.72,196.94c-1.06-2.74-1.2-5.76-.39-8.59.39-1.97.19-4.02-.58-5.87-.32-1.16-.9-2.26-1.16-3.42-.16-1.13-.16-2.29,0-3.42,0-.45.71-.97,1.16-1.23s.9.32,1.16.65c.99,1.32,1.89,2.7,2.71,4.13.22.65.22,1.35,0,2-.62,3.17-.28,6.45.97,9.42.71,2.76-.95,5.58-3.71,6.29-.05.01-.11.03-.16.04ZM69.17,219.99c-2.16-3.34-3.28-7.25-3.23-11.23.85-.16,1.68.38,1.87,1.23.39,1.61.71,3.16,1.1,4.78.26.91.46,1.84.58,2.78-.08.83-.25,1.66-.52,2.45h.19ZM83.44,209.66c.39,0,.77.65,1.23,1.03s-.26,2.07-1.23,2.07-1.1-.58-1.1-1.36.39-1.81,1.1-1.74ZM71.24,217.08c1.36,3.62,1.29,3.74-.45,4.71-.73-1.57-.45-3.43.71-4.71h-.26ZM74.46,255.17c.05,2.67-.57,5.31-1.81,7.68-.52,1.1-1.36,1.87-2.39,1.68-1-.24-1.87-.83-2.45-1.68-2.12-3.82-3.12-8.16-2.9-12.52,0-2.32,1.74-3.74,3.03-5.42s2.97-3.74,4.71-5.87c0,1.68.58,3.16.77,4.71.65,3.81.97,7.75,1.29,11.43h-.26ZM73.11,232.9c-1.12-1.69-1.85-3.61-2.13-5.62,0-1.87-.39-3.55,1.74-4.58.89-.53,1.24-1.63.84-2.58-.14-.37-.14-.79,0-1.16.22-.55.5-1.07.84-1.55,1.25,5.15.89,10.56-1.03,15.49h-.26ZM75.69,192.55c.77,3.16,1.68,6.46,2.58,9.36-.17,1.85-.94,3.6-2.19,4.97-.8.84-2.05,1.07-3.1.58-1.09-.2-1.83-1.22-1.68-2.32-.07-1.03-.07-2.07,0-3.1.36-.92.13-1.96-.58-2.65-1.64-2.23-2.1-5.12-1.23-7.75,0-1.48,1.61-2,3.42-1.42,1.42,0,2.66.96,3.03,2.32h-.26ZM73.88,186.93c.06.64.06,1.29,0,1.94,0,0-.58.65-.71.58-.59-.23-1.11-.58-1.55-1.03v-1.03c0-.32.58,0,.84,0l1.42-.45ZM78.73,101.21c-.36.64-.62,1.34-.77,2.07-.21,1.2-1.13,2.14-2.32,2.39-.83-.89-.83-2.27,0-3.16.83-1.17,1.56-2.4,2.19-3.68.84.58,1.61,1.03.9,2.26v.13ZM80.47,103.4s-.65-.52-.58-.65,0-2.13,1.23-2.19c0,0,.71.65,1.03.97-.17.81-.85,1.42-1.68,1.48v.39ZM83.44,96.56c-1.42-.9-2.32-.9-2.9.45-.32.08-.65.08-.97,0-.09-.84-.09-1.68,0-2.52.07-.66.2-1.31.39-1.94,0-.97,0-1.94.32-2.9.06-.73.06-1.46,0-2.19-.48-1.42.27-2.97,1.68-3.49.97-.39,2,0,2,1.1l-.52,11.49ZM122.17,143.1l.45-.58h.32l1.94,25.05h-.52c-1.81-1.48-3.68-2.9-5.36-4.52-3.06-2.53-6.32-4.82-9.75-6.84h0c-1.42-.9-1.48-1.29,0-2.26s4.45-3.03,6.46-4.52c.97-.65,2.07-1.16,3.03-1.87,1.53-1.14,2.71-2.69,3.42-4.45ZM88.21,104.76c.39,0,.97-.65.97-1.03,0-1.87,1.61-2.78,2.97-3.74.84,1.42.97,1.48,1.68,0s1.81-4,2.65-6,1.29-2.71,1.87-4.07c1.1-2.65,2.07-5.36,3.16-8,0-.32.39-.65.52-.97s.84-2.13,1.29-3.16c.24-.76.64-1.46,1.16-2.07,1.41-1.47,2.59-3.15,3.49-4.97.32-.71.9-1.29,1.29-2s1.1-1.87,1.74-2.84c.86-1.39,1.83-2.71,2.9-3.94,1.81-2,2.32-4.84,4.78-6.46v8.59c0,6.97.39,14.01.71,20.98,0,3.29.52,6.46.77,9.88.39,4.58.71,9.23,1.1,13.81.12.78-.39,1.52-1.16,1.68l-4.45,1.48c-2.71.84-5.42,1.48-8.07,2.39s-4.78,1.87-7.17,2.9c-.65,0-1.23.65-1.87.97-2.07.9-2.32.9-3.62-.9-1.04-1.07-1.64-2.5-1.68-4,0-.71-1.1-2.07-1.74-2.07-2.19,0-3.23-1.55-4.45-2.84-.57-.66-1.11-1.35-1.61-2.07l2.78-1.55ZM83.7,121.09v-10.14h.71c.41.53.74,1.12.97,1.74,0,.84.58,1.03,1.36,1.16.63.19,1.24.45,1.81.77.57.41,1.17.75,1.81,1.03,1.42.45,1.42,1.74,1.68,2.78.29,1-.14,2.06-1.03,2.58-1.22.81-2.5,1.54-3.81,2.19-2,.65-3.29-.13-3.36-2.13h-.13Z"/>
        <g class="cls-2">
          <g class="cls-2">
            <path class="cls-1" d="M237.96,87.09h16.35v59.12h30.3v15.1h-46.65v-74.22Z"/>
          </g>
          <g class="cls-2">
            <path class="cls-1" d="M336.82,152.5c-5.03,6.39-13.31,10.06-21.49,10.06-15.72,0-28.3-10.48-28.3-26.73s12.58-26.73,28.3-26.73c14.68,0,23.9,10.48,23.9,26.73v4.93h-36.48c1.26,5.98,5.77,9.85,11.85,9.85,5.14,0,8.6-2.62,11.22-6.19l11.01,8.07ZM323.51,130.07c.1-5.24-3.98-9.64-9.65-9.64-6.92,0-10.69,4.72-11.11,9.64h20.76Z"/>
            <path class="cls-1" d="M377.6,125.35c-2.31-2.83-5.35-4.3-9.12-4.3-2.62,0-5.77,1.15-5.77,4.19,0,7.55,26.52,1.15,26.52,20.55,0,13-12.58,16.77-23.48,16.77-7.13,0-14.99-1.78-20.02-6.92l9.54-10.59c2.94,3.56,6.39,5.56,11.11,5.56,3.56,0,7.13-.94,7.13-3.67,0-8.18-26.52-1.26-26.52-20.65,0-11.95,10.69-17.19,21.39-17.19,6.71,0,14.15,1.68,18.87,6.71l-9.64,9.54Z"/>
          </g>
          <g class="cls-2">
            <path class="cls-1" d="M451.06,106.38c-3.25-3.88-7.97-6.08-14.05-6.08-12.37,0-21.49,10.06-21.49,23.9s9.12,23.9,20.97,23.9c6.6,0,11.95-2.94,15.3-7.97l13.63,10.17c-6.18,8.81-16.67,12.89-26.84,12.89-23.17,0-40.04-15.2-40.04-39s16.88-39,40.04-39c8.28,0,18.76,2.83,25.05,10.9l-12.58,10.27Z"/>
          </g>
          <g class="cls-2">
            <path class="cls-1" d="M498.61,109.1c15.72,0,28.3,10.48,28.3,26.73s-12.58,26.73-28.3,26.73-28.3-10.48-28.3-26.73,12.58-26.73,28.3-26.73ZM498.61,148.73c7.86,0,12.58-5.24,12.58-12.89s-4.72-12.89-12.58-12.89-12.58,5.24-12.58,12.89,4.72,12.89,12.58,12.89Z"/>
          </g>
          <g class="cls-2">
            <path class="cls-1" d="M538.42,110.36h15.72v8.18h.21c3.35-6.18,7.76-9.44,14.68-9.44,1.78,0,3.77.11,5.24.52v14.36c-2.2-.63-4.4-1.05-6.71-1.05-11.95,0-13.42,6.92-13.42,17.09v21.28h-15.72v-50.95Z"/>
          </g>
          <g class="cls-2">
            <path class="cls-1" d="M631.52,161.31h-14.47v-6.71h-.21c-2.41,3.67-8.49,7.97-15.62,7.97-15.1,0-25.06-10.9-25.06-26.31,0-14.15,8.81-27.15,23.27-27.15,6.5,0,12.58,1.78,16.14,6.71h.21v-33.76h15.72v79.25ZM604.48,122.94c-7.86,0-12.58,5.24-12.58,12.89s4.72,12.89,12.58,12.89,12.58-5.24,12.58-12.89-4.72-12.89-12.58-12.89Z"/>
            <path class="cls-1" d="M652.18,85.2c5.03,0,9.12,4.09,9.12,9.12s-4.09,9.12-9.12,9.12-9.12-4.09-9.12-9.12,4.09-9.12,9.12-9.12ZM644.32,110.36h15.72v50.95h-15.72v-50.95Z"/>
            <path class="cls-1" d="M700.19,125.35c-2.31-2.83-5.35-4.3-9.12-4.3-2.62,0-5.77,1.15-5.77,4.19,0,7.55,26.52,1.15,26.52,20.55,0,13-12.58,16.77-23.48,16.77-7.13,0-14.99-1.78-20.02-6.92l9.54-10.59c2.94,3.56,6.39,5.56,11.11,5.56,3.56,0,7.13-.94,7.13-3.67,0-8.18-26.52-1.26-26.52-20.65,0-11.95,10.69-17.19,21.39-17.19,6.71,0,14.15,1.68,18.87,6.71l-9.64,9.54Z"/>
            <path class="cls-1" d="M754.6,122.94h-13.84v16.98c0,5.45.63,9.43,7.44,9.43,1.68,0,5.03-.21,6.39-1.47v13.1c-3.46,1.26-7.34,1.57-11.01,1.57-10.48,0-18.55-4.3-18.55-15.41v-24.22h-10.06v-12.58h10.06v-15.1h15.72v15.1h13.84v12.58Z"/>
            <path class="cls-1" d="M810.79,152.5c-5.03,6.39-13.31,10.06-21.49,10.06-15.72,0-28.3-10.48-28.3-26.73s12.58-26.73,28.3-26.73c14.68,0,23.9,10.48,23.9,26.73v4.93h-36.48c1.26,5.98,5.77,9.85,11.85,9.85,5.14,0,8.6-2.62,11.22-6.19l11.01,8.07ZM797.48,130.07c.11-5.24-3.98-9.64-9.64-9.64-6.92,0-10.69,4.72-11.11,9.64h20.76Z"/>
            <path class="cls-1" d="M851.57,125.35c-2.31-2.83-5.35-4.3-9.12-4.3-2.62,0-5.77,1.15-5.77,4.19,0,7.55,26.52,1.15,26.52,20.55,0,13-12.58,16.77-23.48,16.77-7.13,0-14.99-1.78-20.02-6.92l9.54-10.59c2.94,3.56,6.39,5.56,11.11,5.56,3.56,0,7.13-.94,7.13-3.67,0-8.18-26.52-1.26-26.52-20.65,0-11.95,10.69-17.19,21.39-17.19,6.71,0,14.15,1.68,18.87,6.71l-9.64,9.54Z"/>
            <path class="cls-1" d="M881.24,142.65c5.35,0,9.64,4.3,9.64,9.65s-4.3,9.64-9.64,9.64-9.64-4.3-9.64-9.64,4.3-9.65,9.64-9.65Z"/>
            <path class="cls-1" d="M936.8,126.82c-1.57-2.2-4.51-3.88-7.76-3.88-7.86,0-12.58,5.24-12.58,12.89s4.72,12.89,12.58,12.89c3.46,0,5.98-1.78,7.76-3.88l10.38,10.9c-4.93,5.03-12.16,6.81-18.14,6.81-15.72,0-28.3-10.48-28.3-26.73s12.58-26.73,28.3-26.73c5.98,0,13.21,1.78,18.14,6.81l-10.38,10.9Z"/>
            <path class="cls-1" d="M979.26,109.1c15.72,0,28.3,10.48,28.3,26.73s-12.58,26.73-28.3,26.73-28.3-10.48-28.3-26.73,12.58-26.73,28.3-26.73ZM979.26,148.73c7.86,0,12.58-5.24,12.58-12.89s-4.72-12.89-12.58-12.89-12.58,5.24-12.58,12.89,4.72,12.89,12.58,12.89Z"/>
            <path class="cls-1" d="M1016.79,110.36h15.1v6.92h.21c2.1-3.98,7.23-8.18,14.89-8.18,7.13,0,13,2.94,15.72,9.12,3.67-6.5,8.6-9.12,16.14-9.12,13.84,0,18.03,9.75,18.03,22.12v30.09h-15.72v-29.67c0-4.72-1.78-8.7-6.92-8.7-7.23,0-9.54,5.14-9.54,11.43v26.94h-15.72v-26.94c0-3.77.21-11.43-7.02-11.43-8.18,0-9.44,6.39-9.44,13v25.37h-15.72v-50.95Z"/>
          </g>
        </g>
      </g>
    </g>
    <g>
      <path class="cls-1" d="M250.64,207.07c1.08.39,1.93.98,2.54,1.79.61.81.91,1.9.91,3.28,0,1.06-.3,2.03-.9,2.93-.6.9-1.48,1.61-2.65,2.14-1.17.53-2.56.79-4.19.79s-3.11-.32-4.28-.97c-1.17-.65-2.03-1.49-2.61-2.53-.57-1.04-.86-2.17-.86-3.39h3.55c.04,1,.36,1.9.97,2.69.61.79,1.68,1.18,3.23,1.18.97,0,1.76-.14,2.38-.42.62-.28,1.06-.62,1.32-1.02.26-.4.39-.8.39-1.2,0-.7-.3-1.27-.89-1.71-.59-.44-1.66-.76-3.2-.95-1.77-.23-3.18-.59-4.21-1.06-1.03-.47-1.77-1.08-2.22-1.83-.45-.74-.67-1.67-.67-2.78,0-.99.29-1.89.86-2.72.57-.82,1.4-1.47,2.49-1.95s2.35-.71,3.8-.71c1.56,0,2.86.28,3.9.83,1.04.56,1.81,1.29,2.31,2.2.5.91.76,1.91.78,2.98h-3.47c0-.77-.29-1.47-.86-2.08-.57-.62-1.48-.93-2.72-.93s-2.12.23-2.66.7-.81.97-.81,1.51c0,1.29,1.23,2.07,3.68,2.34,1.63.2,2.99.49,4.07.87Z"/>
      <path class="cls-1" d="M280.26,200.55c1.2,1.13,1.8,2.57,1.8,4.33,0,1.09-.27,2.1-.82,3.01s-1.34,1.65-2.39,2.19-2.29.82-3.72.82h-4.46v6.88h-3.66v-18.93h7.69c2.51,0,4.36.56,5.57,1.69ZM277.5,207.07c.6-.55.9-1.24.9-2.08,0-.91-.29-1.63-.87-2.14-.58-.51-1.39-.77-2.43-.77h-4.44v5.81h4.44c1,0,1.81-.27,2.41-.82Z"/>
      <path class="cls-1" d="M298.19,206.81h7.96v3.01h-7.96v4.73h9.68v3.23h-13.34v-18.93h13.34v3.23h-9.68v4.73ZM301.63,193.05h3.01l-3.01,4.09h-2.15l2.15-4.09Z"/>
      <path class="cls-1" d="M321.25,203.4c.74-1.47,1.82-2.63,3.23-3.48,1.41-.85,3.08-1.28,5.01-1.28s3.41.37,4.69,1.12c1.28.74,2.25,1.68,2.9,2.8.65,1.12,1.03,2.25,1.12,3.4h-3.63c-.09-.66-.33-1.31-.73-1.94-.39-.63-.95-1.14-1.68-1.55s-1.6-.61-2.62-.61c-1.18,0-2.21.29-3.08.86-.87.57-1.53,1.35-1.99,2.33-.46.98-.69,2.07-.69,3.27s.23,2.29.69,3.27c.46.98,1.12,1.75,1.99,2.33.87.57,1.9.86,3.08.86,1.02,0,1.9-.2,2.62-.61.73-.4,1.29-.92,1.68-1.55.39-.63.64-1.27.73-1.94h3.63c-.09,1.15-.46,2.28-1.12,3.4s-1.62,2.05-2.9,2.8c-1.28.74-2.85,1.12-4.69,1.12-1.94,0-3.61-.43-5.01-1.28-1.41-.85-2.48-2.01-3.23-3.48-.74-1.47-1.12-3.11-1.12-4.92s.37-3.45,1.12-4.92Z"/>
      <path class="cls-1" d="M350.89,217.78v-18.93h3.66v18.93h-3.66Z"/>
      <path class="cls-1" d="M381.65,217.78l-1.45-4.3h-7.85l-1.45,4.3h-4.09l6.88-18.93h5.16l6.88,18.93h-4.09ZM379.21,210.47l-2.18-6.48c-.25-.81-.39-1.7-.43-2.69,0-.25-.11-.38-.32-.38s-.32.12-.32.38c-.04.99-.18,1.88-.43,2.69l-2.18,6.48h5.86Z"/>
      <path class="cls-1" d="M401.44,198.85v15.7h9.25v3.23h-12.91v-18.93h3.66Z"/>
      <path class="cls-1" d="M423.81,217.78v-18.93h3.66v18.93h-3.66Z"/>
      <path class="cls-1" d="M452.41,207.07c1.08.39,1.93.98,2.54,1.79.61.81.91,1.9.91,3.28,0,1.06-.3,2.03-.9,2.93-.6.9-1.48,1.61-2.65,2.14-1.17.53-2.56.79-4.19.79s-3.11-.32-4.28-.97c-1.17-.65-2.03-1.49-2.61-2.53-.57-1.04-.86-2.17-.86-3.39h3.55c.04,1,.36,1.9.97,2.69.61.79,1.68,1.18,3.23,1.18.97,0,1.76-.14,2.38-.42.62-.28,1.06-.62,1.32-1.02.26-.4.39-.8.39-1.2,0-.7-.3-1.27-.89-1.71-.59-.44-1.66-.76-3.2-.95-1.77-.23-3.18-.59-4.21-1.06-1.03-.47-1.77-1.08-2.22-1.83-.45-.74-.67-1.67-.67-2.78,0-.99.29-1.89.86-2.72.57-.82,1.4-1.47,2.49-1.95s2.35-.71,3.8-.71c1.56,0,2.86.28,3.9.83,1.04.56,1.81,1.29,2.31,2.2.5.91.76,1.91.78,2.98h-3.47c0-.77-.29-1.47-.86-2.08-.57-.62-1.48-.93-2.72-.93s-2.12.23-2.66.7-.81.97-.81,1.51c0,1.29,1.23,2.07,3.68,2.34,1.63.2,2.99.49,4.07.87Z"/>
      <path class="cls-1" d="M482.54,198.85v3.23h-5.7v15.7h-3.66v-15.7h-5.7v-3.23h15.06Z"/>
      <path class="cls-1" d="M499.1,202.08v4.73h7.96v3.01h-7.96v4.73h9.68v3.23h-13.34v-18.93h13.34v3.23h-9.68Z"/>
      <path class="cls-1" d="M533.29,207.07c1.08.39,1.93.98,2.54,1.79.61.81.91,1.9.91,3.28,0,1.06-.3,2.03-.9,2.93-.6.9-1.48,1.61-2.65,2.14-1.17.53-2.56.79-4.19.79s-3.11-.32-4.28-.97c-1.17-.65-2.03-1.49-2.61-2.53-.57-1.04-.86-2.17-.86-3.39h3.55c.04,1,.36,1.9.97,2.69.61.79,1.68,1.18,3.23,1.18.97,0,1.76-.14,2.38-.42.62-.28,1.06-.62,1.32-1.02.26-.4.39-.8.39-1.2,0-.7-.3-1.27-.89-1.71-.59-.44-1.66-.76-3.2-.95-1.77-.23-3.18-.59-4.21-1.06-1.03-.47-1.77-1.08-2.22-1.83-.45-.74-.67-1.67-.67-2.78,0-.99.29-1.89.86-2.72.57-.82,1.4-1.47,2.49-1.95s2.35-.71,3.8-.71c1.56,0,2.86.28,3.9.83,1.04.56,1.81,1.29,2.31,2.2.5.91.76,1.91.78,2.98h-3.47c0-.77-.29-1.47-.86-2.08-.57-.62-1.48-.93-2.72-.93s-2.12.23-2.66.7-.81.97-.81,1.51c0,1.29,1.23,2.07,3.68,2.34,1.63.2,2.99.49,4.07.87Z"/>
      <path class="cls-1" d="M572.24,202.08v4.73h7.96v3.01h-7.96v4.73h9.68v3.23h-13.34v-18.93h13.34v3.23h-9.68Z"/>
      <path class="cls-1" d="M601.06,198.85l6.94,16.29c.07.2.19.27.35.22.14-.05.22-.14.22-.27,0-.05-.02-.13-.05-.24-.04-.09-.11-.28-.23-.58-.12-.3-.2-.58-.26-.85s-.08-.54-.08-.81v-13.77h3.66v18.93h-5.81l-6.94-16.29c-.07-.2-.19-.27-.35-.22-.14.05-.22.14-.22.27,0,.05.02.13.05.24.04.09.11.28.23.58.12.3.2.58.26.85s.08.54.08.81v13.77h-3.66v-18.93h5.81Z"/>
      <path class="cls-1" d="M658.5,198.85v3.23h-5.7v15.7h-3.66v-15.7h-5.7v-3.23h15.06Z"/>
      <path class="cls-1" d="M679.09,198.85c2.53,0,4.39.52,5.58,1.57,1.19,1.05,1.79,2.44,1.79,4.18,0,1.13-.41,2.14-1.24,3.02s-1.95,1.45-3.39,1.68c-.2.04-.3.15-.3.35,0,.23.1.35.3.35.82.04,1.48.19,1.98.47.49.28.85.59,1.08.94s.43.78.6,1.3l1.83,5.06h-4.25l-1.02-3.85c-.2-.77-.42-1.36-.67-1.77-.25-.41-.64-.73-1.17-.94-.53-.22-1.28-.32-2.25-.32h-2.9v6.88h-3.66v-18.93h7.69ZM681.62,207.03c.79-.54,1.18-1.22,1.18-2.04,0-.93-.29-1.66-.87-2.18-.58-.52-1.39-.78-2.43-.78h-4.44v5.81h3.68c1.13,0,2.09-.27,2.88-.81Z"/>
      <path class="cls-1" d="M713.35,217.78l-1.45-4.3h-7.85l-1.45,4.3h-4.09l6.88-18.93h5.16l6.88,18.93h-4.09ZM710.9,210.47l-2.18-6.48c-.25-.81-.39-1.7-.43-2.69,0-.25-.11-.38-.32-.38s-.32.12-.32.38c-.04.99-.18,1.88-.43,2.69l-2.18,6.48h5.86Z"/>
      <path class="cls-1" d="M733.68,212.7c.27.84.41,1.73.43,2.66,0,.25.11.38.32.38s.32-.12.32-.38c.02-.93.16-1.82.43-2.66l4.41-13.85h4.09l-6.67,18.93h-5.16l-6.67-18.93h4.09l4.41,13.85Z"/>
      <path class="cls-1" d="M766.27,217.78l-1.45-4.3h-7.85l-1.45,4.3h-4.09l6.88-18.93h5.16l6.88,18.93h-4.09ZM763.82,210.47l-2.18-6.48c-.25-.81-.39-1.7-.43-2.69,0-.25-.11-.38-.32-.38s-.32.12-.32.38c-.04.99-.18,1.88-.43,2.69l-2.18,6.48h5.86Z"/>
      <path class="cls-1" d="M797.89,210.36c0,1.54-.32,2.89-.95,4.05-.64,1.16-1.54,2.04-2.7,2.66-1.17.62-2.53.93-4.09.93s-3-.31-4.15-.93c-1.16-.62-2.04-1.5-2.66-2.65s-.93-2.5-.93-4.06v-11.51h3.66v11.72c0,1.4.38,2.45,1.14,3.15.76.7,1.74,1.05,2.94,1.05,1.13,0,2.09-.36,2.89-1.08.8-.72,1.2-1.76,1.2-3.12v-11.72h3.66v11.51Z"/>
      <path class="cls-1" d="M810.79,198.85h3.93l3.6,6.48c.18.32.29.74.32,1.24,0,.25.11.38.32.38s.32-.12.32-.38c.04-.5.14-.91.32-1.24l3.6-6.48h3.93l-5.51,9.17,5.94,9.76h-3.98l-3.98-6.99c-.18-.34-.29-.74-.32-1.21,0-.25-.11-.38-.32-.38s-.32.13-.32.38c-.04.47-.14.87-.32,1.21l-3.98,6.99h-3.98l5.94-9.76-5.51-9.17Z"/>
      <path class="cls-1" d="M870.15,207.07c1.08.39,1.93.98,2.54,1.79.61.81.91,1.9.91,3.28,0,1.06-.3,2.03-.9,2.93-.6.9-1.48,1.61-2.65,2.14-1.17.53-2.56.79-4.19.79s-3.11-.32-4.28-.97c-1.17-.65-2.03-1.49-2.61-2.53-.57-1.04-.86-2.17-.86-3.39h3.55c.04,1,.36,1.9.97,2.69.61.79,1.68,1.18,3.23,1.18.97,0,1.76-.14,2.38-.42.62-.28,1.06-.62,1.32-1.02.26-.4.39-.8.39-1.2,0-.7-.3-1.27-.89-1.71-.59-.44-1.66-.76-3.2-.95-1.77-.23-3.18-.59-4.21-1.06-1.03-.47-1.77-1.08-2.22-1.83-.45-.74-.67-1.67-.67-2.78,0-.99.29-1.89.86-2.72.57-.82,1.4-1.47,2.49-1.95s2.35-.71,3.8-.71c1.56,0,2.86.28,3.9.83,1.04.56,1.81,1.29,2.31,2.2.5.91.76,1.91.78,2.98h-3.47c0-.77-.29-1.47-.86-2.08-.57-.62-1.48-.93-2.72-.93s-2.12.23-2.66.7-.81.97-.81,1.51c0,1.29,1.23,2.07,3.68,2.34,1.63.2,2.99.49,4.07.87Z"/>
      <path class="cls-1" d="M902,210.36c0,1.54-.32,2.89-.95,4.05-.64,1.16-1.54,2.04-2.7,2.66-1.17.62-2.53.93-4.09.93s-3-.31-4.15-.93c-1.16-.62-2.04-1.5-2.66-2.65s-.93-2.5-.93-4.06v-11.51h3.66v11.72c0,1.4.38,2.45,1.14,3.15.76.7,1.74,1.05,2.94,1.05,1.13,0,2.09-.36,2.89-1.08.8-.72,1.2-1.76,1.2-3.12v-11.72h3.66v11.51Z"/>
      <path class="cls-1" d="M923.46,198.85c2.53,0,4.39.52,5.58,1.57,1.19,1.05,1.79,2.44,1.79,4.18,0,1.13-.41,2.14-1.24,3.02s-1.95,1.45-3.39,1.68c-.2.04-.3.15-.3.35,0,.23.1.35.3.35.82.04,1.48.19,1.98.47.49.28.85.59,1.08.94s.43.78.6,1.3l1.83,5.06h-4.25l-1.02-3.85c-.2-.77-.42-1.36-.67-1.77-.25-.41-.64-.73-1.17-.94-.53-.22-1.28-.32-2.25-.32h-2.9v6.88h-3.66v-18.93h7.69ZM925.98,207.03c.79-.54,1.18-1.22,1.18-2.04,0-.93-.29-1.66-.87-2.18-.58-.52-1.39-.78-2.43-.78h-4.44v5.81h3.68c1.13,0,2.09-.27,2.88-.81Z"/>
      <path class="cls-1" d="M963.78,203.4c.74-1.47,1.82-2.63,3.23-3.48,1.41-.85,3.08-1.28,5.01-1.28s3.41.37,4.69,1.12c1.28.74,2.25,1.68,2.9,2.8.65,1.12,1.03,2.25,1.12,3.4h-3.63c-.09-.66-.33-1.31-.73-1.94-.39-.63-.95-1.14-1.68-1.55s-1.6-.61-2.62-.61c-1.18,0-2.21.29-3.08.86-.87.57-1.53,1.35-1.99,2.33-.46.98-.69,2.07-.69,3.27s.23,2.29.69,3.27c.46.98,1.12,1.75,1.99,2.33.87.57,1.9.86,3.08.86,1.02,0,1.9-.2,2.62-.61.73-.4,1.29-.92,1.68-1.55.39-.63.64-1.27.73-1.94h3.63c-.09,1.15-.46,2.28-1.12,3.4s-1.62,2.05-2.9,2.8c-1.28.74-2.85,1.12-4.69,1.12-1.94,0-3.61-.43-5.01-1.28-1.41-.85-2.48-2.01-3.23-3.48-.74-1.47-1.12-3.11-1.12-4.92s.37-3.45,1.12-4.92Z"/>
      <path class="cls-1" d="M1007.27,199.93c1.43.86,2.53,2.03,3.29,3.5.76,1.47,1.14,3.1,1.14,4.89s-.38,3.42-1.14,4.89c-.76,1.47-1.86,2.64-3.29,3.5-1.43.86-3.11,1.29-5.03,1.29s-3.59-.43-5.03-1.29c-1.43-.86-2.53-2.03-3.29-3.5-.76-1.47-1.14-3.1-1.14-4.89s.38-3.42,1.14-4.89c.76-1.47,1.86-2.64,3.29-3.5,1.43-.86,3.11-1.29,5.03-1.29s3.59.43,5.03,1.29ZM1005.33,213.91c.88-.57,1.55-1.35,2.02-2.33.47-.98.7-2.07.7-3.27s-.23-2.29-.7-3.27c-.47-.98-1.14-1.75-2.02-2.33s-1.91-.86-3.09-.86-2.21.29-3.09.86-1.55,1.35-2.02,2.33c-.47.98-.7,2.07-.7,3.27s.23,2.29.7,3.27c.47.98,1.14,1.75,2.02,2.33.88.57,1.91.86,3.09.86s2.21-.29,3.09-.86Z"/>
      <path class="cls-1" d="M1032.09,198.85c2.53,0,4.39.52,5.58,1.57,1.19,1.05,1.79,2.44,1.79,4.18,0,1.13-.41,2.14-1.24,3.02s-1.95,1.45-3.39,1.68c-.2.04-.3.15-.3.35,0,.23.1.35.3.35.82.04,1.48.19,1.98.47.49.28.85.59,1.08.94s.43.78.6,1.3l1.83,5.06h-4.25l-1.02-3.85c-.2-.77-.42-1.36-.67-1.77-.25-.41-.64-.73-1.17-.94-.53-.22-1.28-.32-2.25-.32h-2.9v6.88h-3.66v-18.93h7.69ZM1034.61,207.03c.79-.54,1.18-1.22,1.18-2.04,0-.93-.29-1.66-.87-2.18-.58-.52-1.39-.78-2.43-.78h-4.44v5.81h3.68c1.13,0,2.09-.27,2.88-.81Z"/>
      <path class="cls-1" d="M1065.63,200.13c1.44.85,2.5,1.99,3.16,3.41.66,1.43.99,3.02.99,4.77s-.34,3.35-1.02,4.77-1.75,2.56-3.2,3.41c-1.45.85-3.28,1.28-5.49,1.28h-7.07v-18.93h7.07c2.26,0,4.11.43,5.55,1.28ZM1063.59,213.68c.85-.58,1.49-1.35,1.91-2.3.42-.95.63-1.97.63-3.07s-.21-2.11-.63-3.07c-.42-.95-1.06-1.72-1.91-2.3-.85-.58-1.89-.87-3.11-.87h-3.82v12.48h3.82c1.22,0,2.25-.29,3.11-.87Z"/>
      <path class="cls-1" d="M1086.13,202.08v4.73h7.96v3.01h-7.96v4.73h9.68v3.23h-13.34v-18.93h13.34v3.23h-9.68Z"/>
    </g>
  </g>
</svg>