<?xml version="1.0" encoding="UTF-8"?>
<svg id="Calque_2" data-name="Calque 2" xmlns="http://www.w3.org/2000/svg" viewBox="0 0 1132.17 369.84">
  <defs>
    <style>
      .cls-1 {
        fill: #fff;
        stroke: #000;
        stroke-miterlimit: 10;
      }

      .cordiste-anim {
        transform-origin: 50% 0;
        transform-box: fill-box;
        animation: cordiste-swing 5s ease-in-out infinite;
      }

      @keyframes cordiste-swing {
        0%, 100% { transform: rotate(-4.5deg); }
        50%      { transform: rotate(4.5deg); }
      }

      @media (prefers-reduced-motion: reduce) {
        .cordiste-anim { animation: none; }
      }
    </style>
  </defs>
  <g id="Calque_1-2" data-name="Calque 1">
    <g>
      <path class="cls-1" d="M286.47,250.38c1.1.4,1.9,1,2.5,1.8s.9,1.9.9,3.3-.3,2-.9,2.9-1.5,1.6-2.6,2.1c-1.2.5-2.6.8-4.2.8s-3.1-.3-4.3-1c-1.2-.6-2-1.5-2.6-2.5s-.9-2.2-.9-3.4h3.5c0,1,.4,1.9,1,2.7s1.7,1.2,3.2,1.2,1.8-.1,2.4-.4c.6-.3,1.1-.6,1.3-1,.3-.4.4-.8.4-1.2,0-.7-.3-1.3-.9-1.7s-1.7-.8-3.2-1c-1.8-.2-3.2-.6-4.2-1.1s-1.8-1.1-2.2-1.8c-.4-.7-.7-1.7-.7-2.8s.3-1.9.9-2.7,1.4-1.5,2.5-1.9,2.4-.7,3.8-.7,2.9.3,3.9.8c1,.6,1.8,1.3,2.3,2.2s.8,1.9.8,3h-3.5c0-.8-.3-1.5-.9-2.1s-1.5-.9-2.7-.9-2.1.2-2.7.7-.8,1-.8,1.5c0,1.3,1.2,2.1,3.7,2.3,1.6.2,3,.5,4.1.9h.1Z"/>
      <path class="cls-1" d="M316.07,243.78c1.2,1.1,1.8,2.6,1.8,4.3s-.3,2.1-.8,3-1.3,1.6-2.4,2.2-2.3.8-3.7.8h-4.5v6.9h-3.7v-18.9h7.7c2.5,0,4.4.6,5.6,1.7ZM313.37,250.38c.6-.5.9-1.2.9-2.1s-.3-1.6-.9-2.1-1.4-.8-2.4-.8h-4.4v5.8h4.4c1,0,1.8-.3,2.4-.8h0Z"/>
      <path class="cls-1" d="M334.07,250.08h8v3h-8v4.7h9.7v3.2h-13.3v-18.9h13.3v3.2h-9.7v4.8ZM337.47,236.28h3l-3,4.1h-2.2l2.2-4.1Z"/>
      <path class="cls-1" d="M357.07,246.68c.7-1.5,1.8-2.6,3.2-3.5,1.4-.9,3.1-1.3,5-1.3s3.4.4,4.7,1.1c1.3.7,2.2,1.7,2.9,2.8.7,1.1,1,2.3,1.1,3.4h-3.6c0-.7-.3-1.3-.7-1.9-.4-.6-1-1.1-1.7-1.5s-1.6-.6-2.6-.6-2.2.3-3.1.9c-.9.6-1.5,1.3-2,2.3s-.7,2.1-.7,3.3.2,2.3.7,3.3,1.1,1.8,2,2.3c.9.6,1.9.9,3.1.9s1.9-.2,2.6-.6c.7-.4,1.3-.9,1.7-1.5.4-.6.6-1.3.7-1.9h3.6c0,1.1-.5,2.3-1.1,3.4s-1.6,2.1-2.9,2.8-2.8,1.1-4.7,1.1-3.6-.4-5-1.3c-1.4-.9-2.5-2-3.2-3.5s-1.1-3.1-1.1-4.9.4-3.5,1.1-4.9v-.2Z"/>
      <path class="cls-1" d="M386.77,261.08v-18.9h3.7v18.9h-3.7Z"/>
      <path class="cls-1" d="M417.47,261.08l-1.5-4.3h-7.9l-1.5,4.3h-4.1l6.9-18.9h5.2l6.9,18.9h-4.1.1ZM415.07,253.78l-2.2-6.5c-.3-.8-.4-1.7-.4-2.7,0-.3-.1-.4-.3-.4s-.3.1-.3.4c0,1-.2,1.9-.4,2.7l-2.2,6.5h5.9-.1Z"/>
      <path class="cls-1" d="M437.27,242.08v15.7h9.2v3.2h-12.9v-18.9h3.7Z"/>
      <path class="cls-1" d="M459.67,261.08v-18.9h3.7v18.9h-3.7Z"/>
      <path class="cls-1" d="M488.27,250.38c1.1.4,1.9,1,2.5,1.8s.9,1.9.9,3.3-.3,2-.9,2.9-1.5,1.6-2.6,2.1c-1.2.5-2.6.8-4.2.8s-3.1-.3-4.3-1c-1.2-.6-2-1.5-2.6-2.5s-.9-2.2-.9-3.4h3.5c0,1,.4,1.9,1,2.7s1.7,1.2,3.2,1.2,1.8-.1,2.4-.4c.6-.3,1.1-.6,1.3-1,.3-.4.4-.8.4-1.2,0-.7-.3-1.3-.9-1.7s-1.7-.8-3.2-1c-1.8-.2-3.2-.6-4.2-1.1s-1.8-1.1-2.2-1.8c-.4-.7-.7-1.7-.7-2.8s.3-1.9.9-2.7,1.4-1.5,2.5-1.9,2.4-.7,3.8-.7,2.9.3,3.9.8c1,.6,1.8,1.3,2.3,2.2s.8,1.9.8,3h-3.5c0-.8-.3-1.5-.9-2.1s-1.5-.9-2.7-.9-2.1.2-2.7.7-.8,1-.8,1.5c0,1.3,1.2,2.1,3.7,2.3,1.6.2,3,.5,4.1.9h.1Z"/>
      <path class="cls-1" d="M518.37,242.08v3.2h-5.7v15.7h-3.7v-15.7h-5.7v-3.2h15.1,0Z"/>
      <path class="cls-1" d="M534.97,245.38v4.7h8v3h-8v4.7h9.7v3.2h-13.3v-18.9h13.3v3.2h-9.7v.1Z"/>
      <path class="cls-1" d="M569.17,250.38c1.1.4,1.9,1,2.5,1.8s.9,1.9.9,3.3-.3,2-.9,2.9-1.5,1.6-2.6,2.1c-1.2.5-2.6.8-4.2.8s-3.1-.3-4.3-1c-1.2-.6-2-1.5-2.6-2.5s-.9-2.2-.9-3.4h3.5c0,1,.4,1.9,1,2.7s1.7,1.2,3.2,1.2,1.8-.1,2.4-.4c.6-.3,1.1-.6,1.3-1,.3-.4.4-.8.4-1.2,0-.7-.3-1.3-.9-1.7s-1.7-.8-3.2-1c-1.8-.2-3.2-.6-4.2-1.1s-1.8-1.1-2.2-1.8c-.4-.7-.7-1.7-.7-2.8s.3-1.9.9-2.7,1.4-1.5,2.5-1.9,2.4-.7,3.8-.7,2.9.3,3.9.8c1,.6,1.8,1.3,2.3,2.2s.8,1.9.8,3h-3.5c0-.8-.3-1.5-.9-2.1s-1.5-.9-2.7-.9-2.1.2-2.7.7-.8,1-.8,1.5c0,1.3,1.2,2.1,3.7,2.3,1.6.2,3,.5,4.1.9h.1Z"/>
      <path class="cls-1" d="M608.07,245.38v4.7h8v3h-8v4.7h9.7v3.2h-13.3v-18.9h13.3v3.2h-9.7v.1Z"/>
      <path class="cls-1" d="M636.87,242.08l6.9,16.3c0,.2.2.3.3.2.1,0,.2-.1.2-.3v-.2l-.2-.6c-.1-.3-.2-.6-.3-.8s0-.5,0-.8v-13.8h3.7v18.9h-5.8l-6.9-16.3c0-.2-.2-.3-.3-.2-.1,0-.2.1-.2.3v.2l.2.6c.1.3.2.6.3.8s0,.5,0,.8v13.8h-3.7v-18.9h5.8Z"/>
      <path class="cls-1" d="M694.37,242.08v3.2h-5.7v15.7h-3.7v-15.7h-5.7v-3.2h15.1,0Z"/>
      <path class="cls-1" d="M714.97,242.08c2.5,0,4.4.5,5.6,1.6,1.2,1,1.8,2.4,1.8,4.2s-.4,2.1-1.2,3-2,1.4-3.4,1.7c-.2,0-.3.2-.3.3s0,.3.3.3c.8,0,1.5.2,2,.5s.9.6,1.1.9.4.8.6,1.3l1.8,5.1h-4.2l-1-3.8c-.2-.8-.4-1.4-.7-1.8-.3-.4-.6-.7-1.2-.9-.5-.2-1.3-.3-2.2-.3h-2.9v6.9h-3.7v-18.9h7.7l-.1-.1ZM717.47,250.28c.8-.5,1.2-1.2,1.2-2s-.3-1.7-.9-2.2-1.4-.8-2.4-.8h-4.4v5.8h3.7c1.1,0,2.1-.3,2.9-.8h-.1Z"/>
      <path class="cls-1" d="M749.17,261.08l-1.5-4.3h-7.9l-1.5,4.3h-4.1l6.9-18.9h5.2l6.9,18.9h-4.1.1ZM746.77,253.78l-2.2-6.5c-.3-.8-.4-1.7-.4-2.7,0-.3-.1-.4-.3-.4s-.3.1-.3.4c0,1-.2,1.9-.4,2.7l-2.2,6.5h5.9-.1Z"/>
      <path class="cls-1" d="M769.47,255.98c.3.8.4,1.7.4,2.7,0,.3.1.4.3.4s.3-.1.3-.4c0-.9.2-1.8.4-2.7l4.4-13.8h4.1l-6.7,18.9h-5.2l-6.7-18.9h4.1l4.4,13.8h.2Z"/>
      <path class="cls-1" d="M802.07,261.08l-1.5-4.3h-7.9l-1.5,4.3h-4.1l6.9-18.9h5.2l6.9,18.9h-4.1.1ZM799.67,253.78l-2.2-6.5c-.3-.8-.4-1.7-.4-2.7,0-.3-.1-.4-.3-.4s-.3.1-.3.4c0,1-.2,1.9-.4,2.7l-2.2,6.5h5.9-.1Z"/>
      <path class="cls-1" d="M833.67,253.58c0,1.5-.3,2.9-1,4-.6,1.2-1.5,2-2.7,2.7-1.2.6-2.5.9-4.1.9s-3-.3-4.2-.9c-1.2-.6-2-1.5-2.7-2.6s-.9-2.5-.9-4.1v-11.5h3.7v11.7c0,1.4.4,2.4,1.1,3.1.8.7,1.7,1,2.9,1s2.1-.4,2.9-1.1c.8-.7,1.2-1.8,1.2-3.1v-11.7h3.7v11.5l.1.1Z"/>
      <path class="cls-1" d="M846.67,242.08h3.9l3.6,6.5c.2.3.3.7.3,1.2,0,.3.1.4.3.4s.3-.1.3-.4c0-.5.1-.9.3-1.2l3.6-6.5h3.9l-5.5,9.2,5.9,9.8h-4l-4-7c-.2-.3-.3-.7-.3-1.2,0-.3-.1-.4-.3-.4s-.3.1-.3.4c0,.5-.1.9-.3,1.2l-4,7h-4l5.9-9.8-5.5-9.2h.2Z"/>
      <path class="cls-1" d="M905.97,250.38c1.1.4,1.9,1,2.5,1.8s.9,1.9.9,3.3-.3,2-.9,2.9-1.5,1.6-2.6,2.1c-1.2.5-2.6.8-4.2.8s-3.1-.3-4.3-1c-1.2-.6-2-1.5-2.6-2.5s-.9-2.2-.9-3.4h3.5c0,1,.4,1.9,1,2.7s1.7,1.2,3.2,1.2,1.8-.1,2.4-.4c.6-.3,1.1-.6,1.3-1,.3-.4.4-.8.4-1.2,0-.7-.3-1.3-.9-1.7s-1.7-.8-3.2-1c-1.8-.2-3.2-.6-4.2-1.1s-1.8-1.1-2.2-1.8c-.4-.7-.7-1.7-.7-2.8s.3-1.9.9-2.7,1.4-1.5,2.5-1.9,2.4-.7,3.8-.7,2.9.3,3.9.8c1,.6,1.8,1.3,2.3,2.2s.8,1.9.8,3h-3.5c0-.8-.3-1.5-.9-2.1s-1.5-.9-2.7-.9-2.1.2-2.7.7-.8,1-.8,1.5c0,1.3,1.2,2.1,3.7,2.3,1.6.2,3,.5,4.1.9h.1Z"/>
      <path class="cls-1" d="M937.87,253.58c0,1.5-.3,2.9-1,4-.6,1.2-1.5,2-2.7,2.7-1.2.6-2.5.9-4.1.9s-3-.3-4.2-.9c-1.2-.6-2-1.5-2.7-2.6s-.9-2.5-.9-4.1v-11.5h3.7v11.7c0,1.4.4,2.4,1.1,3.1.8.7,1.7,1,2.9,1s2.1-.4,2.9-1.1c.8-.7,1.2-1.8,1.2-3.1v-11.7h3.7v11.5l.1.1Z"/>
      <path class="cls-1" d="M959.27,242.08c2.5,0,4.4.5,5.6,1.6,1.2,1,1.8,2.4,1.8,4.2s-.4,2.1-1.2,3-2,1.4-3.4,1.7c-.2,0-.3.2-.3.3s0,.3.3.3c.8,0,1.5.2,2,.5s.9.6,1.1.9.4.8.6,1.3l1.8,5.1h-4.2l-1-3.8c-.2-.8-.4-1.4-.7-1.8-.3-.4-.6-.7-1.2-.9-.5-.2-1.3-.3-2.2-.3h-2.9v6.9h-3.7v-18.9h7.7l-.1-.1ZM961.77,250.28c.8-.5,1.2-1.2,1.2-2s-.3-1.7-.9-2.2-1.4-.8-2.4-.8h-4.4v5.8h3.7c1.1,0,2.1-.3,2.9-.8h-.1Z"/>
      <path class="cls-1" d="M999.57,246.68c.7-1.5,1.8-2.6,3.2-3.5,1.4-.9,3.1-1.3,5-1.3s3.4.4,4.7,1.1c1.3.7,2.2,1.7,2.9,2.8.7,1.1,1,2.3,1.1,3.4h-3.6c0-.7-.3-1.3-.7-1.9-.4-.6-1-1.1-1.7-1.5s-1.6-.6-2.6-.6-2.2.3-3.1.9c-.9.6-1.5,1.3-2,2.3s-.7,2.1-.7,3.3.2,2.3.7,3.3,1.1,1.8,2,2.3c.9.6,1.9.9,3.1.9s1.9-.2,2.6-.6c.7-.4,1.3-.9,1.7-1.5.4-.6.6-1.3.7-1.9h3.6c0,1.1-.5,2.3-1.1,3.4s-1.6,2.1-2.9,2.8-2.8,1.1-4.7,1.1-3.6-.4-5-1.3c-1.4-.9-2.5-2-3.2-3.5s-1.1-3.1-1.1-4.9.4-3.5,1.1-4.9v-.2Z"/>
      <path class="cls-1" d="M1043.07,243.18c1.4.9,2.5,2,3.3,3.5s1.1,3.1,1.1,4.9-.4,3.4-1.1,4.9c-.8,1.5-1.9,2.6-3.3,3.5s-3.1,1.3-5,1.3-3.6-.4-5-1.3c-1.4-.9-2.5-2-3.3-3.5s-1.1-3.1-1.1-4.9.4-3.4,1.1-4.9c.8-1.5,1.9-2.6,3.3-3.5s3.1-1.3,5-1.3,3.6.4,5,1.3ZM1041.17,257.18c.9-.6,1.5-1.3,2-2.3s.7-2.1.7-3.3-.2-2.3-.7-3.3-1.1-1.8-2-2.3-1.9-.9-3.1-.9-2.2.3-3.1.9-1.6,1.3-2,2.3c-.5,1-.7,2.1-.7,3.3s.2,2.3.7,3.3,1.1,1.8,2,2.3c.9.6,1.9.9,3.1.9s2.2-.3,3.1-.9Z"/>
      <path class="cls-1" d="M1067.87,242.08c2.5,0,4.4.5,5.6,1.6,1.2,1,1.8,2.4,1.8,4.2s-.4,2.1-1.2,3-2,1.4-3.4,1.7c-.2,0-.3.2-.3.3s0,.3.3.3c.8,0,1.5.2,2,.5s.9.6,1.1.9.4.8.6,1.3l1.8,5.1h-4.2l-1-3.8c-.2-.8-.4-1.4-.7-1.8-.3-.4-.6-.7-1.2-.9-.5-.2-1.3-.3-2.2-.3h-2.9v6.9h-3.7v-18.9h7.7l-.1-.1ZM1070.47,250.28c.8-.5,1.2-1.2,1.2-2s-.3-1.7-.9-2.2-1.4-.8-2.4-.8h-4.4v5.8h3.7c1.1,0,2.1-.3,2.9-.8h-.1Z"/>
      <path class="cls-1" d="M1101.47,243.38c1.4.9,2.5,2,3.2,3.4s1,3,1,4.8-.3,3.3-1,4.8-1.7,2.6-3.2,3.4c-1.5.9-3.3,1.3-5.5,1.3h-7.1v-18.9h7.1c2.3,0,4.1.4,5.6,1.3l-.1-.1ZM1099.37,256.98c.9-.6,1.5-1.3,1.9-2.3.4-.9.6-2,.6-3.1s-.2-2.1-.6-3.1-1.1-1.7-1.9-2.3c-.9-.6-1.9-.9-3.1-.9h-3.8v12.5h3.8c1.2,0,2.3-.3,3.1-.9v.1Z"/>
      <path class="cls-1" d="M1121.97,245.38v4.7h8v3h-8v4.7h9.7v3.2h-13.3v-18.9h13.3v3.2h-9.7v.1Z"/>
    </g>
    <g class="cordiste-anim">
    <g>
      <path class="cls-1" d="M286.47,250.38c1.1.4,1.9,1,2.5,1.8s.9,1.9.9,3.3-.3,2-.9,2.9-1.5,1.6-2.6,2.1c-1.2.5-2.6.8-4.2.8s-3.1-.3-4.3-1c-1.2-.6-2-1.5-2.6-2.5s-.9-2.2-.9-3.4h3.5c0,1,.4,1.9,1,2.7s1.7,1.2,3.2,1.2,1.8-.1,2.4-.4c.6-.3,1.1-.6,1.3-1,.3-.4.4-.8.4-1.2,0-.7-.3-1.3-.9-1.7s-1.7-.8-3.2-1c-1.8-.2-3.2-.6-4.2-1.1s-1.8-1.1-2.2-1.8c-.4-.7-.7-1.7-.7-2.8s.3-1.9.9-2.7,1.4-1.5,2.5-1.9,2.4-.7,3.8-.7,2.9.3,3.9.8c1,.6,1.8,1.3,2.3,2.2s.8,1.9.8,3h-3.5c0-.8-.3-1.5-.9-2.1s-1.5-.9-2.7-.9-2.1.2-2.7.7-.8,1-.8,1.5c0,1.3,1.2,2.1,3.7,2.3,1.6.2,3,.5,4.1.9h.1Z"/>
      <path class="cls-1" d="M316.07,243.78c1.2,1.1,1.8,2.6,1.8,4.3s-.3,2.1-.8,3-1.3,1.6-2.4,2.2-2.3.8-3.7.8h-4.5v6.9h-3.7v-18.9h7.7c2.5,0,4.4.6,5.6,1.7ZM313.37,250.38c.6-.5.9-1.2.9-2.1s-.3-1.6-.9-2.1-1.4-.8-2.4-.8h-4.4v5.8h4.4c1,0,1.8-.3,2.4-.8h0Z"/>
      <path class="cls-1" d="M334.07,250.08h8v3h-8v4.7h9.7v3.2h-13.3v-18.9h13.3v3.2h-9.7v4.8ZM337.47,236.28h3l-3,4.1h-2.2l2.2-4.1Z"/>
      <path class="cls-1" d="M357.07,246.68c.7-1.5,1.8-2.6,3.2-3.5,1.4-.9,3.1-1.3,5-1.3s3.4.4,4.7,1.1c1.3.7,2.2,1.7,2.9,2.8.7,1.1,1,2.3,1.1,3.4h-3.6c0-.7-.3-1.3-.7-1.9-.4-.6-1-1.1-1.7-1.5s-1.6-.6-2.6-.6-2.2.3-3.1.9c-.9.6-1.5,1.3-2,2.3s-.7,2.1-.7,3.3.2,2.3.7,3.3,1.1,1.8,2,2.3c.9.6,1.9.9,3.1.9s1.9-.2,2.6-.6c.7-.4,1.3-.9,1.7-1.5.4-.6.6-1.3.7-1.9h3.6c0,1.1-.5,2.3-1.1,3.4s-1.6,2.1-2.9,2.8-2.8,1.1-4.7,1.1-3.6-.4-5-1.3c-1.4-.9-2.5-2-3.2-3.5s-1.1-3.1-1.1-4.9.4-3.5,1.1-4.9v-.2Z"/>
      <path class="cls-1" d="M386.77,261.08v-18.9h3.7v18.9h-3.7Z"/>
      <path class="cls-1" d="M417.47,261.08l-1.5-4.3h-7.9l-1.5,4.3h-4.1l6.9-18.9h5.2l6.9,18.9h-4.1.1ZM415.07,253.78l-2.2-6.5c-.3-.8-.4-1.7-.4-2.7,0-.3-.1-.4-.3-.4s-.3.1-.3.4c0,1-.2,1.9-.4,2.7l-2.2,6.5h5.9-.1Z"/>
      <path class="cls-1" d="M437.27,242.08v15.7h9.2v3.2h-12.9v-18.9h3.7Z"/>
      <path class="cls-1" d="M459.67,261.08v-18.9h3.7v18.9h-3.7Z"/>
      <path class="cls-1" d="M488.27,250.38c1.1.4,1.9,1,2.5,1.8s.9,1.9.9,3.3-.3,2-.9,2.9-1.5,1.6-2.6,2.1c-1.2.5-2.6.8-4.2.8s-3.1-.3-4.3-1c-1.2-.6-2-1.5-2.6-2.5s-.9-2.2-.9-3.4h3.5c0,1,.4,1.9,1,2.7s1.7,1.2,3.2,1.2,1.8-.1,2.4-.4c.6-.3,1.1-.6,1.3-1,.3-.4.4-.8.4-1.2,0-.7-.3-1.3-.9-1.7s-1.7-.8-3.2-1c-1.8-.2-3.2-.6-4.2-1.1s-1.8-1.1-2.2-1.8c-.4-.7-.7-1.7-.7-2.8s.3-1.9.9-2.7,1.4-1.5,2.5-1.9,2.4-.7,3.8-.7,2.9.3,3.9.8c1,.6,1.8,1.3,2.3,2.2s.8,1.9.8,3h-3.5c0-.8-.3-1.5-.9-2.1s-1.5-.9-2.7-.9-2.1.2-2.7.7-.8,1-.8,1.5c0,1.3,1.2,2.1,3.7,2.3,1.6.2,3,.5,4.1.9h.1Z"/>
      <path class="cls-1" d="M518.37,242.08v3.2h-5.7v15.7h-3.7v-15.7h-5.7v-3.2h15.1,0Z"/>
      <path class="cls-1" d="M534.97,245.38v4.7h8v3h-8v4.7h9.7v3.2h-13.3v-18.9h13.3v3.2h-9.7v.1Z"/>
      <path class="cls-1" d="M569.17,250.38c1.1.4,1.9,1,2.5,1.8s.9,1.9.9,3.3-.3,2-.9,2.9-1.5,1.6-2.6,2.1c-1.2.5-2.6.8-4.2.8s-3.1-.3-4.3-1c-1.2-.6-2-1.5-2.6-2.5s-.9-2.2-.9-3.4h3.5c0,1,.4,1.9,1,2.7s1.7,1.2,3.2,1.2,1.8-.1,2.4-.4c.6-.3,1.1-.6,1.3-1,.3-.4.4-.8.4-1.2,0-.7-.3-1.3-.9-1.7s-1.7-.8-3.2-1c-1.8-.2-3.2-.6-4.2-1.1s-1.8-1.1-2.2-1.8c-.4-.7-.7-1.7-.7-2.8s.3-1.9.9-2.7,1.4-1.5,2.5-1.9,2.4-.7,3.8-.7,2.9.3,3.9.8c1,.6,1.8,1.3,2.3,2.2s.8,1.9.8,3h-3.5c0-.8-.3-1.5-.9-2.1s-1.5-.9-2.7-.9-2.1.2-2.7.7-.8,1-.8,1.5c0,1.3,1.2,2.1,3.7,2.3,1.6.2,3,.5,4.1.9h.1Z"/>
      <path class="cls-1" d="M608.07,245.38v4.7h8v3h-8v4.7h9.7v3.2h-13.3v-18.9h13.3v3.2h-9.7v.1Z"/>
      <path class="cls-1" d="M636.87,242.08l6.9,16.3c0,.2.2.3.3.2.1,0,.2-.1.2-.3v-.2l-.2-.6c-.1-.3-.2-.6-.3-.8s0-.5,0-.8v-13.8h3.7v18.9h-5.8l-6.9-16.3c0-.2-.2-.3-.3-.2-.1,0-.2.1-.2.3v.2l.2.6c.1.3.2.6.3.8s0,.5,0,.8v13.8h-3.7v-18.9h5.8Z"/>
      <path class="cls-1" d="M694.37,242.08v3.2h-5.7v15.7h-3.7v-15.7h-5.7v-3.2h15.1,0Z"/>
      <path class="cls-1" d="M714.97,242.08c2.5,0,4.4.5,5.6,1.6,1.2,1,1.8,2.4,1.8,4.2s-.4,2.1-1.2,3-2,1.4-3.4,1.7c-.2,0-.3.2-.3.3s0,.3.3.3c.8,0,1.5.2,2,.5s.9.6,1.1.9.4.8.6,1.3l1.8,5.1h-4.2l-1-3.8c-.2-.8-.4-1.4-.7-1.8-.3-.4-.6-.7-1.2-.9-.5-.2-1.3-.3-2.2-.3h-2.9v6.9h-3.7v-18.9h7.7l-.1-.1ZM717.47,250.28c.8-.5,1.2-1.2,1.2-2s-.3-1.7-.9-2.2-1.4-.8-2.4-.8h-4.4v5.8h3.7c1.1,0,2.1-.3,2.9-.8h-.1Z"/>
      <path class="cls-1" d="M749.17,261.08l-1.5-4.3h-7.9l-1.5,4.3h-4.1l6.9-18.9h5.2l6.9,18.9h-4.1.1ZM746.77,253.78l-2.2-6.5c-.3-.8-.4-1.7-.4-2.7,0-.3-.1-.4-.3-.4s-.3.1-.3.4c0,1-.2,1.9-.4,2.7l-2.2,6.5h5.9-.1Z"/>
      <path class="cls-1" d="M769.47,255.98c.3.8.4,1.7.4,2.7,0,.3.1.4.3.4s.3-.1.3-.4c0-.9.2-1.8.4-2.7l4.4-13.8h4.1l-6.7,18.9h-5.2l-6.7-18.9h4.1l4.4,13.8h.2Z"/>
      <path class="cls-1" d="M802.07,261.08l-1.5-4.3h-7.9l-1.5,4.3h-4.1l6.9-18.9h5.2l6.9,18.9h-4.1.1ZM799.67,253.78l-2.2-6.5c-.3-.8-.4-1.7-.4-2.7,0-.3-.1-.4-.3-.4s-.3.1-.3.4c0,1-.2,1.9-.4,2.7l-2.2,6.5h5.9-.1Z"/>
      <path class="cls-1" d="M833.67,253.58c0,1.5-.3,2.9-1,4-.6,1.2-1.5,2-2.7,2.7-1.2.6-2.5.9-4.1.9s-3-.3-4.2-.9c-1.2-.6-2-1.5-2.7-2.6s-.9-2.5-.9-4.1v-11.5h3.7v11.7c0,1.4.4,2.4,1.1,3.1.8.7,1.7,1,2.9,1s2.1-.4,2.9-1.1c.8-.7,1.2-1.8,1.2-3.1v-11.7h3.7v11.5l.1.1Z"/>
      <path class="cls-1" d="M846.67,242.08h3.9l3.6,6.5c.2.3.3.7.3,1.2,0,.3.1.4.3.4s.3-.1.3-.4c0-.5.1-.9.3-1.2l3.6-6.5h3.9l-5.5,9.2,5.9,9.8h-4l-4-7c-.2-.3-.3-.7-.3-1.2,0-.3-.1-.4-.3-.4s-.3.1-.3.4c0,.5-.1.9-.3,1.2l-4,7h-4l5.9-9.8-5.5-9.2h.2Z"/>
      <path class="cls-1" d="M905.97,250.38c1.1.4,1.9,1,2.5,1.8s.9,1.9.9,3.3-.3,2-.9,2.9-1.5,1.6-2.6,2.1c-1.2.5-2.6.8-4.2.8s-3.1-.3-4.3-1c-1.2-.6-2-1.5-2.6-2.5s-.9-2.2-.9-3.4h3.5c0,1,.4,1.9,1,2.7s1.7,1.2,3.2,1.2,1.8-.1,2.4-.4c.6-.3,1.1-.6,1.3-1,.3-.4.4-.8.4-1.2,0-.7-.3-1.3-.9-1.7s-1.7-.8-3.2-1c-1.8-.2-3.2-.6-4.2-1.1s-1.8-1.1-2.2-1.8c-.4-.7-.7-1.7-.7-2.8s.3-1.9.9-2.7,1.4-1.5,2.5-1.9,2.4-.7,3.8-.7,2.9.3,3.9.8c1,.6,1.8,1.3,2.3,2.2s.8,1.9.8,3h-3.5c0-.8-.3-1.5-.9-2.1s-1.5-.9-2.7-.9-2.1.2-2.7.7-.8,1-.8,1.5c0,1.3,1.2,2.1,3.7,2.3,1.6.2,3,.5,4.1.9h.1Z"/>
      <path class="cls-1" d="M937.87,253.58c0,1.5-.3,2.9-1,4-.6,1.2-1.5,2-2.7,2.7-1.2.6-2.5.9-4.1.9s-3-.3-4.2-.9c-1.2-.6-2-1.5-2.7-2.6s-.9-2.5-.9-4.1v-11.5h3.7v11.7c0,1.4.4,2.4,1.1,3.1.8.7,1.7,1,2.9,1s2.1-.4,2.9-1.1c.8-.7,1.2-1.8,1.2-3.1v-11.7h3.7v11.5l.1.1Z"/>
      <path class="cls-1" d="M959.27,242.08c2.5,0,4.4.5,5.6,1.6,1.2,1,1.8,2.4,1.8,4.2s-.4,2.1-1.2,3-2,1.4-3.4,1.7c-.2,0-.3.2-.3.3s0,.3.3.3c.8,0,1.5.2,2,.5s.9.6,1.1.9.4.8.6,1.3l1.8,5.1h-4.2l-1-3.8c-.2-.8-.4-1.4-.7-1.8-.3-.4-.6-.7-1.2-.9-.5-.2-1.3-.3-2.2-.3h-2.9v6.9h-3.7v-18.9h7.7l-.1-.1ZM961.77,250.28c.8-.5,1.2-1.2,1.2-2s-.3-1.7-.9-2.2-1.4-.8-2.4-.8h-4.4v5.8h3.7c1.1,0,2.1-.3,2.9-.8h-.1Z"/>
      <path class="cls-1" d="M999.57,246.68c.7-1.5,1.8-2.6,3.2-3.5,1.4-.9,3.1-1.3,5-1.3s3.4.4,4.7,1.1c1.3.7,2.2,1.7,2.9,2.8.7,1.1,1,2.3,1.1,3.4h-3.6c0-.7-.3-1.3-.7-1.9-.4-.6-1-1.1-1.7-1.5s-1.6-.6-2.6-.6-2.2.3-3.1.9c-.9.6-1.5,1.3-2,2.3s-.7,2.1-.7,3.3.2,2.3.7,3.3,1.1,1.8,2,2.3c.9.6,1.9.9,3.1.9s1.9-.2,2.6-.6c.7-.4,1.3-.9,1.7-1.5.4-.6.6-1.3.7-1.9h3.6c0,1.1-.5,2.3-1.1,3.4s-1.6,2.1-2.9,2.8-2.8,1.1-4.7,1.1-3.6-.4-5-1.3c-1.4-.9-2.5-2-3.2-3.5s-1.1-3.1-1.1-4.9.4-3.5,1.1-4.9v-.2Z"/>
      <path class="cls-1" d="M1043.07,243.18c1.4.9,2.5,2,3.3,3.5s1.1,3.1,1.1,4.9-.4,3.4-1.1,4.9c-.8,1.5-1.9,2.6-3.3,3.5s-3.1,1.3-5,1.3-3.6-.4-5-1.3c-1.4-.9-2.5-2-3.3-3.5s-1.1-3.1-1.1-4.9.4-3.4,1.1-4.9c.8-1.5,1.9-2.6,3.3-3.5s3.1-1.3,5-1.3,3.6.4,5,1.3ZM1041.17,257.18c.9-.6,1.5-1.3,2-2.3s.7-2.1.7-3.3-.2-2.3-.7-3.3-1.1-1.8-2-2.3-1.9-.9-3.1-.9-2.2.3-3.1.9-1.6,1.3-2,2.3c-.5,1-.7,2.1-.7,3.3s.2,2.3.7,3.3,1.1,1.8,2,2.3c.9.6,1.9.9,3.1.9s2.2-.3,3.1-.9Z"/>
      <path class="cls-1" d="M1067.87,242.08c2.5,0,4.4.5,5.6,1.6,1.2,1,1.8,2.4,1.8,4.2s-.4,2.1-1.2,3-2,1.4-3.4,1.7c-.2,0-.3.2-.3.3s0,.3.3.3c.8,0,1.5.2,2,.5s.9.6,1.1.9.4.8.6,1.3l1.8,5.1h-4.2l-1-3.8c-.2-.8-.4-1.4-.7-1.8-.3-.4-.6-.7-1.2-.9-.5-.2-1.3-.3-2.2-.3h-2.9v6.9h-3.7v-18.9h7.7l-.1-.1ZM1070.47,250.28c.8-.5,1.2-1.2,1.2-2s-.3-1.7-.9-2.2-1.4-.8-2.4-.8h-4.4v5.8h3.7c1.1,0,2.1-.3,2.9-.8h-.1Z"/>
      <path class="cls-1" d="M1101.47,243.38c1.4.9,2.5,2,3.2,3.4s1,3,1,4.8-.3,3.3-1,4.8-1.7,2.6-3.2,3.4c-1.5.9-3.3,1.3-5.5,1.3h-7.1v-18.9h7.1c2.3,0,4.1.4,5.6,1.3l-.1-.1ZM1099.37,256.98c.9-.6,1.5-1.3,1.9-2.3.4-.9.6-2,.6-3.1s-.2-2.1-.6-3.1-1.1-1.7-1.9-2.3c-.9-.6-1.9-.9-3.1-.9h-3.8v12.5h3.8c1.2,0,2.3-.3,3.1-.9v.1Z"/>
      <path class="cls-1" d="M1121.97,245.38v4.7h8v3h-8v4.7h9.7v3.2h-13.3v-18.9h13.3v3.2h-9.7v.1Z"/>
    </g>
    <g>
      <path class="cls-1" d="M157.13,47.54c2.05,0,4.25,3.56,4.44,5.46.25,2.49-.64,8.19-1.62,10.52-.58,1.37-5.3,9.29-6.16,9.83-2.34,1.47-5.75-.25-6.95.09-.51.15-.73.64-.76,1.14.19,20.69,1.41,41.32,3.76,61.85,3.54-.46,8.8-2.09,11.99,0,3.05,1.99,10.39,12.36,12.85,15.85,8.53,12.09,15.15,24.98,22.38,37.83.46.81.37,1.86,1,2.76,1.28,1.84,5.61,3.01,7.24,5.96.85,1.55-.52,2.43.5,3.71.79.56,3.75-.54,4.83-.87,1.81-.57,9.39-3.26,10.5-4.08,3.28-2.43,2.6-11.49,6.79-12.48,12.1-2.88,9.47,13.54,6.48,20.1-2.84,6.23-5.81,8.06-10,12.57-2.88,3.1-1.51,4.59-2.46,7.88s-4.99,7.01-7.49,9.21c-.59.52-.73,1.56-1.84,2.15-2.75,1.46-5.07-.41-7.02-2.27-2.05-1.95-12.09-12.43-12.6-14.21-.4-1.42-.03-3.48-.75-4.43-.95-1.28-2.05-.06-3.01-.27-.61-.13-4.36-4.89-4.67-5.7-.42-1.13-.24-2.18-.58-3.18-1.43-4.2-13.94-10.12-16.02-15.49-.36-.94-.18-1.94-.75-3.01-.18-.34-4.75-5.32-5.14-5.68-.71-.65-8.39-3.9-9.25-3.95l-1.03.71c.69,8.43,1.95,16.85,1.83,25.32-.03,1.8-.93,2.5-.03,4.75.27.66,3.87,5.33,4.5,5.84,2.15,1.72,5.6,2.26,7.92,3.84,4.52,3.09,4.27,9.63,5.72,14.5,6.11,20.53,11.62,36.94,22.42,55.66.67,1.16,6.23,9.44,6.72,9.77,1.32.9,3.54-1.56,5.45.29,2.01,1.95-.36,5.52,2.23,8.13,1.26,1.27,10.76,7.45,12.48,8.08,5,1.83,11.21-.94,14.36,4.45,1.45,2.47,1.75,7.72-.39,9.82-5.44,5.37-18.84,5.7-25.78,3.64-1.74-.51-4.95-2.41-6.45-2.42-2.6,0-3.41,2.72-4.8,3.13-3.58,1.05-15.72-1.82-17.3-5.56-1.94-4.59,4.88-12.83,2.69-18.21-.43-1.06-1.96-1.97-2.66-2.98-.91-1.33-1.75-3.43-2.62-4.44-1-1.15-2.54-1.69-3.69-3.36-3.79-5.5-4.61-13.41-9.72-18.5-.71-.71-7.77-6.15-8.23-5.64-.3,4.77-.72,9.54-.47,14.34.57,10.86,2.66,22.14,3.75,32.93.96,9.46,1.26,19.24,2.36,28.68.68,5.83,2.12,11.59,2.82,17.4l-1.18.26c-.89-1.7-1.95-3.17-2.45-5.08-2.75-10.45-2.75-25.91-3.9-37.02-1.28-12.41-3.28-24.68-3.78-37.14-.37-9.21,1.85-16.04-3.53-24.22-1.44-2.19-4.62-3.1-5.87-4.95-1.15-1.71-1.25-4.11-2.89-6.05-1.08-1.29-3.1-2.65-4.41-4.06-.81-.87-1.04-2.07-1.86-2.85-2.12-2-6.62-2.02-9.05-3.18-3.25-1.56-3.78-8.99-5.68-12.19-.39-.66-4.08-5.03-4.55-5.33-1.6-.99-14.91-3.63-15.77-2.81-.17,1.77,2.66,6.62,1.82,7.93-1.17,1.82-2.52-.77-2.99-1.83-.9-2.01-1.37-4.4-2.24-6.45-.93-1.08-5.87,0-7.34.41-1.06,3.78,1.63,4.53,3.17,7.28,2.68,4.78,4.23,12.11,6.56,17.43.8,1.83,5.7,10.41,5.7,11.21-.02,2.69-6.32,6.57-8.65,6.34-1.15-.11-1.8-1.55-3.08-1.4.27,5.9.95,11.55-.21,17.43-.52,2.62-2.97,7.3-3.05,9.18-.1,2.35,1.9,8.3,2.26,11.31.76,6.37,1.39,15.43-1.74,21.19-3.24,5.96-8.41,3.74-10.99-1.41-1.81-3.62-3.05-13.92-2.04-17.74,1-3.82,9.91-10.88,10.16-14.34.16-2.27-2.17-6.86-3.39-8.86-.42-.7-1.37-.9-1.93-1.84-.25-.43-1.62-6.36-2.24-5.52-.7,6.32,3.33,13.77-1.17,19.29-3.67,4.5-12.28,4.18-13.67-2.33-1.25-5.85,6.4-17.11,6.4-24.72,0-3.66-1.51-7.61-1.48-11.3.02-2.93.94-6.43,1.48-9.33-2.88-1.06-3.53-4.21-6.37-5.01-2.31,5.64-3.43,11.81-5.41,17.65-1.05,3.1-3.67,7.52-4.13,10.45-.41,2.6.89,9.74.14,10.95-.73,1.18-2.02-.73-3.21-.42-.98.25-1.93,2.38-3.7,2.92-4.51,1.38-10.16,1.33-14.38-.52-.7-.31-1.21-1.01-1.77-1.52-5.46,5.91-7.87,12.18-9.11,20.05-1.81,11.5-2.77,23.22-4.31,34.73-1.45,10.89-3.04,21.85-4.7,32.69-1.24.87-1.8-2.85-1.87-3.53-.87-8.54,2.06-18.01,3.22-26.4,1.28-9.27,2.39-18.46,3.77-27.75,1.68-11.31,1.08-20.44,9.22-29.82,2.08-2.39,4.6-2.9,4.51-6.34-.12-4.6-1.87-10.42-4.97-13.88-.94-1.05-3.84-2.8-4.03-3.14-.14-.24-1.61-4.94-1.65-5.3-.33-3.13,4.35-7.21,3.98-8.62-2.47-3.53-7.54-8.32-8.76-12.45-1.03-3.48-.34-8.11-1.09-11.61-.38-1.75-1.55-3.14-1.8-5.25-.22-1.82-.32-7.08.2-8.63.38-1.12,1.94-2.15,2.5-3.15,3.57-6.42-2.87-15.97-3.18-23.05-.18-4.15,1.76-11.67-1.62-15.06-2.14-2.15-4.06-.82-4.12-5.1-.07-5.61-.35-3.66-2.08-8.23-1.02-2.7-1.18-6.04-1.99-8.83-.75-2.61-4.05-8.96-4.13-10.68-.02-.5.28-1.1.25-1.65,1.7-1.47,4.73,4.36,5.51,5.53.32.49.42,1.25.83.12.74-2.03.07-5.45,1.07-8.34,1.54-4.46,7.62-11.03,8.38-15.18.65-3.55-2.07-7.42-.54-11.79.4-1.13,1.44-1.55,1.87-2.36,1.01-1.96-.21-3.98,3.19-3.64,2.4.24,12.72,2.55,15.06,3.33,2.28.75,2.88,1.15,5.66,1.86.95.24,4.34,3.4,5.04,1.53.41-1.1-.25-.98-.58-1.32-2.57-2.6-3.92-4.18-5.44-7.71l-1.74-17.53,10.35-7.05c1.78,1.5,1.18,4.4,2.35,6.09.89,1.29,4.62,3,6.1,4.25,4.68,3.95,0,4-.23,6.35-.05.51.87,7.97,1.05,8.83.53,2.5,2.95,3.95-1.02,6.24-4.38,2.52-10.21-.55-8.96,6.8,7.57-2.51,13.19,2.58,17.87,7.76.69.42,7.02-.08,8.13-.33,3.95-.87,4.46-7.37,6.52-9.95,1.13-1.42,2.42-1.41,3.33-2.78,1.95-2.94,3.15-9.86,4.83-13.51,1.75-3.79,4.25-6.25,8.6-6.68,1.07-5.19,1.6-10.8,1.97-16.14,1.3-18.43,1.53-37.11,3.3-55.49.16-1.68.36-7.21,1.66-7.75.21-.09,1.16-.19,1.16.22l-4.71,79.25c5.43-1.02,10.76-.37,11.63,6,.26,1.87-.29,3.18-.2,4.52.08,1.15.87,2.13.83,3.82-.17,7.3-6.91,7.1-10.18,11.97-.11,3.83.59,7.69.26,11.54-.28,3.26-1.76,6.36-1.87,9.65.35.36,5.48-1.54,5.91-2.34.63-1.17-.48-1.53-.65-2.25-.31-1.31,7.31-13.29,8.56-15.69,4.6-8.83,8.95-17.59,13.68-26.3,1.74-3.22,5.23-9.79,7.38-12.37,1.03-1.23,3.11-1.94,3.46-2.66.4-.83.2-2.08.59-3.17.64-1.81,2.75-3.9,3.63-6.25,4.71-12.51,3.49-25.2,4.48-38.32.46-6.06,1.14-12.17,2.35-18.11,2.51,0,2,1.95,1.89,4.02-.59,11.13-2.49,22.59-2.86,33.82-.1,3.05.11,6.14.02,9.19h6.82ZM152.54,50.47c-1.57-1.68-3.79,1.62-2.16,2.64,1.52.96,3.91-.78,2.16-2.64ZM108.47,138.06c1.53.91,3.29.5,4.43,1.69,1.48,1.54,1.72,7.01,4.8,8.37l29.1-11.21-2.61-33.61-.45-30.36-1.63.48c-4.93,8.38-11.09,16.12-15.85,24.6-4.94,8.79-7.41,20.04-12.4,28.99-.94,1.12-1.2-1.4-2.57-.72-2.89,2.2-2.17,6.36-6.59,6.85-.39.52,3.06,4.48,3.78,4.91ZM101.39,121.38l-.45-13.8c-.89-1.02-2.18-.78-3.05.18-1.87,2.05-.57,3.93-.71,6.34-.16,2.81-1.52,5.37-.49,8.22l4.7-.94ZM22,122.19c10.79-3.45,20.01,1,29.02,6.52,1.63,1,5.08,3.88,6.45,4.37.85.3.54-.19.77-.53.5-.76,2.26-3.68,2.27-4.36l-.14-.63c-10.67-6.55-25.53-15.07-38.33-10.04-4.17,1.64-6.49,3.65-7.68,8.08,2.74-.49,4.84-2.53,7.63-3.42ZM91.99,132.2c2.93.12,4.07-4.54,3.76-6.82l-.93-.23c-.72,2.5-3.31,4.23-2.83,7.05ZM98.33,129.74c1.82.17,2.15-2.81.46-3.17-1.35-.29-2.23,3.01-.46,3.17ZM60.45,134.8l2.22,2.05,3.85-5.44-2.53-2.5-3.55,5.89ZM65.85,139.26l15.59,12.71c1.5.13,4.36-2.96,3.06-4.51-4.6-3.34-8.52-8.08-12.99-11.49-.71-.54-2.75-2.39-3.49-1.88,0,1.76-2.99,3.66-2.17,5.16ZM101.86,152.66c0,.12,1.38,1.48,1.75,1.58,1.73.48,8.03-3.16,8.17-5.34.34-5.28-5.08-4.68-7.54-6.62-.94-.74-.96-2.61-2.38-3.03v13.41ZM80.25,181.36c4.82-4.64,7.08-9.1,10.42-14.5,2.3-3.73,5.02-7.21,7.67-10.7l-1.18-6.09c-7.9,9.01-13.56,19.96-23.31,27.28-.6.81,2.84,5.88,3.15,6.05,1.07.61,2.51-1.33,3.25-2.04ZM134.24,183.17l-19.3-25.95c-.75-.44-2.96.34-3.18,1.16,3.9,10.38,11.59,18.75,18.39,27.38,1.12.65,3.53-1.6,4.09-2.59ZM109.36,191.91c2.34-10.74,7.96-4.2,13.93-2.82,1.98.46-.67-1.95-1.06-2.24-3.62-2.69-8.71-4.85-13.25-4.38l-5.68-19.48c-.35-1.9-2.24-1.02-2.26.39-.05,2.68.93,7.5,1.37,10.38.48,3.15,2.12,8.2,2.1,10.98-.01,2.25-1.58,3.67-1.71,5.79l6.56,1.39ZM148.67,177.36c-3.33,5.96-9.75,8.32-14.97,12.31-.61.47-2.81,1.77-2.66,2.47l19.73,15.32-2.11-30.1ZM58.32,189.58c-.43.68,2.44,6.14,4.51,5.46,1.67-.55,10.83-7.33,11.55-8.76l-3.1-6.1-12.96,9.4ZM69.38,201.13c4.56,1.46,13.46-6.14,12.7-11.28-.29-1.96-2.77-5.02-3.1-2.39-.14,1.16,1.69,2.95.69,5.06-.74,1.56-6.89,7-8.54,6.85s-2.39-2.41-2.76-2.62c-3.1-1.72-1.66,3.53,1.01,4.39ZM38.88,208.11c1.26,6.13,2.32,12.32,3.12,18.53.13,1-.39,2.07-.24,3.5.1.99,1.43,6.87,1.78,7.53.3.56,1.33.83,1.89,1.52,1.09,1.37,1.19,3.48.9,5.17-.21,1.22-1.1,1.74-1.29,2.49-.39,1.52,1.93,6.1,2.51,8.1,1.38,4.74.63,7.98,5.63,11.3,1.76-.01,8.05-24.03,9.08-27.16.21-3.08-5.1-5.65-5.13-7.87-.03-2.75,5.33-1.65,6.08-4.34.56-2-1.93-6.87-2.22-9.35-.48-4.08.23-8.11,2.24-11.64-3.57-2.96-7.56-3.18-10.75-7.13-4.06-5.03,1.12-4.54,2.31-9.12l-7.49-3.34c-1.49,7.69-6.28,14.35-8.43,21.82ZM107.96,194.78c-2.3.17-6.37-3.09-7.31-.03-.81,2.62,4.79,2.71,6.79,2.77l.52-2.74ZM97.75,216.51c1.38,6.01,4.28,3.86,9.28,5.06-1.29-6.7-.97-13.41-.52-20.18l-7.91-1.42c-1.17,5.41-2.12,11.04-.85,16.54ZM65.19,215.71c.05,2.36-2.15,6.69,1.57,7.2,2.95-1.7,3.5-12.92,1.52-14.56-.8-.67-2.77-.54-3.47.16-1.66,1.66.33,5.36.38,7.2ZM78.82,228.86c-.29-4.99,1.87-6.84-2.37-11.28-.93-.97-1.75-2.01-2.72-.39-1.8,3.02,1.83,8.94,2.22,12.18.39,3.19-.98,5.22-.94,7.96.03,1.92,1.03,3.92.98,5.88,7.76-2.59,3.14-8.92,2.83-14.35ZM85.15,244.16c.43,1.44,2.32,3.17,2.46,4.51.19,1.79-2.22,6.12.61,7.47,4.49,2.13,6.84-3.45,6.59-7.05-.12-1.66-2.42-10.59-3.18-11.88-.54-.92-1.77-1.7-2.81-1.91-4.79-.94-4.61,5.71-3.67,8.85ZM83.51,271.43c.18-.88.52-1.56.46-2.52-.08-1.14-2.1-9.68-2.57-10.18-.55-.58-.9-.53-1.65-.47-1.02,1.35,2.57,14.06,3.75,13.17ZM99.5,261.31c.48,2.18,2.72,1.91,3.33,0l-1.67-2.1-1.66,2.09ZM73.51,268.71c-1.68,3.94-3.65,9.62-5.05,13.76-2.26,6.66-4.03,13.97,6.23,10.94,8.31-2.46.25-13.81,0-19.07-.11-2.25.79-4.65-.11-7.14-.81.13-.82.94-1.06,1.52ZM85.53,272.01c.1,3.65,2.91,1.14,1.4-2.35-.29-.67-.11-.71-1.06-.58.05,1.02-.37,1.91-.35,2.94ZM89.39,274.24c-.47,1.07-2.4,1.65-2.74,2.47-1.13,2.71-.08,6.79,1.46,9.16.29.45-.05.84,1.05.6.3-.27,1.89-6.22,1.89-6.82v-10.11c-2.1-.08-1.04,3.29-1.65,4.69ZM90.12,316.37c.23-3.55-.55-9.9-.96-13.66-.24-2.26-.77-4.55-.94-6.82-.93-.24-.91.38-1.32.79-2.22,2.18-8.03,9.21-8.11,12.16-.08,3.12,1.2,10.07,2.66,12.87.97,1.86,3.56,4.99,5.7,3.2,1.36-1.14,2.85-6.66,2.97-8.54Z"/>
      <path class="cls-1" d="M48.69,59.09c1.95,1.01,3.9.17,3.1,3.04-.38,1.36-1.4,2.36-2.46,3.2-6.74,5.39-18.45,9.76-24.62,15.36-3.28,2.98-2.36,6.59-4.5,10.08-.83,1.36-6.42,7.01-7.89,6.58-1.43-2.22-3.22-3.49-4.62-5.76-6.31-10.23-8.65-21.77-.38-31.58,6.89-8.17,14.41-10.4,25.03-9.07,7.41.93,10.52,5.13,16.32,8.14ZM23.73,61.45c2.93,2.93,7.59-2.38,3.95-3.48-2.27-.68-5.25,1.05-3.95,3.48ZM19.8,62.14c.41-.82.5-2.44-.55-2.79-3.82-1.28-5.5,6.24.55,2.79ZM32.69,65.2c4.89,4.17,7.24-4.07,2.99-5.34-3.16-.95-5.89,2.87-2.99,5.34ZM12.96,64.26c-.54-2.41-4.38.4-3.75,2.09.95.39,3.97-1.1,3.75-2.09ZM10.03,86.93c2.14,4.9,6.62-1.43,3.26-3.97-2.12-1.61-4.53,1.05-3.26,3.97Z"/>
      <path class="cls-1" d="M36.01,77.17c-2.68-.02-.55,4.54-1.85,5.43-2.55.86-6.44-1.66-8.51.9-1.75,2.16.06,5.62-2.3,7.59l.18.67c.35.45,9.75,3.12,10.88,3.24,3.16.34,4.08-.9,3.95-3.95-.17-4.22-1.94-9.55-2.36-13.89Z"/>
    </g>
    <path class="cls-1" d="M273.45,212.73v-72.84h17.68v57.38h28.16v15.46h-45.85Z"/>
    <path class="cls-1" d="M375.23,191.51h-37.07c1.05,5.89,6.29,9.96,12.18,9.69,4.45.26,8.65-1.7,11.4-5.37l11.66,7.47c-5.37,7.34-14.15,11.4-23.19,10.87-15.33,0-28.03-9.69-28.03-27.12-.52-14.54,10.74-26.85,25.41-27.38h2.23c15.06,0,25.68,10.35,25.68,27.77v4.19h-.26v-.13ZM359.78,181.03c.26-5.11-3.67-9.56-8.78-9.82h-1.31c-5.76-.26-10.87,3.93-11.53,9.82h21.61Z"/>
    <path class="cls-1" d="M415.84,176.57c-2.88-2.75-6.68-4.45-10.61-4.58-3.14,0-6.42,1.18-6.42,4.06s2.75,3.67,9.3,5.11c7.73,1.7,16.24,5.63,16.24,15.59s-11.4,17.42-21.88,17.42c-8.12.26-16.11-2.62-22.27-7.86l9.43-9.96c3.14,3.54,7.73,5.5,12.44,5.63,2.75,0,6.03-1.18,6.03-4.58s-3.14-4.19-10.09-5.89-14.93-5.24-14.93-14.93,11.53-17.16,21.22-17.16,14.67,2.49,20.3,7.34l-9.04,9.56.26.26h0Z"/>
    <path class="cls-1" d="M470.6,214.43c-20.57.92-37.99-14.93-39.04-35.5v-2.88c0-23.32,17.16-38.12,39.43-38.12,10.09-.26,19.91,3.54,27.12,10.61l-11.92,11.92c-3.54-4.32-8.91-6.81-14.54-6.55-11.53,0-20.96,9.3-20.96,20.83v1.44c0,13.23,8.51,22.27,20.57,22.27,6.03,0,11.79-2.62,15.33-7.47l12.18,11.53c-7.2,7.99-17.55,12.31-28.16,11.92h0Z"/>
    <path class="cls-1" d="M529.94,214.17c-14.93.52-27.51-11.13-28.16-26.07v-1.18c0-16.77,12.97-27.12,28.3-27.12s28.43,10.22,28.43,27.12c.13,14.93-11.92,27.25-26.85,27.38h-1.7v-.13ZM529.94,173.69c-6.68,0-12.05,5.5-12.05,12.18v.92c-.65,6.68,4.19,12.71,10.87,13.36,6.68.65,12.71-4.19,13.36-10.87v-2.62c.39-6.81-4.72-12.58-11.4-12.97-.26,0-.52,0-.79,0Z"/>
    <path class="cls-1" d="M601.99,175.13c-1.44-.39-3.01-.52-4.58-.52-6.42-.26-11.66,4.72-11.92,11v26.99h-16.77v-51.22h16.24v7.47h0c2.49-5.37,7.86-8.78,13.89-8.78s2.36,0,3.54.39l-.26,14.67h-.13Z"/>
    <path class="cls-1" d="M646.4,212.73v-6.81h0c-3.93,5.24-10.22,8.38-16.77,8.12-15.33,0-24.23-12.84-24.23-27.12s9.04-26.72,24.1-26.72c6.03,0,11.66,2.36,15.59,6.81h.26v-32.09h16.77v77.68h-15.72v.13ZM633.56,173.95c-6.68,0-12.05,5.37-12.05,12.18v.92c-.52,6.68,4.45,12.58,11.27,13.1h.79c7.2-.65,12.58-6.94,12.05-14.15-.52-6.42-5.63-11.53-12.05-12.05Z"/>
    <path class="cls-1" d="M683.74,154.3c-4.98-.26-8.78-4.58-8.38-9.56.26-4.98,4.58-8.78,9.56-8.38,4.72.26,8.38,4.19,8.51,9.04-.13,5.11-4.45,9.17-9.69,9.04h0v-.13ZM675.35,212.73v-51.35h16.77v51.22h-16.77v.13Z"/>
    <path class="cls-1" d="M735.48,176.57c-2.88-2.75-6.68-4.45-10.61-4.58-3.14,0-6.29,1.18-6.29,4.06s2.75,3.67,9.3,5.11c7.73,1.7,16.24,5.63,16.24,15.59s-11.4,17.42-21.88,17.42c-8.12.26-16.11-2.62-22.27-7.86l9.43-9.96c3.14,3.54,7.73,5.63,12.58,5.76,2.75,0,6.03-1.18,6.03-4.58s-3.14-4.19-10.09-5.89c-6.94-1.57-14.93-5.24-14.93-14.93s11.53-17.16,21.22-17.16c7.47,0,14.8,2.36,20.44,7.2l-9.17,9.56v.26h0Z"/>
    <path class="cls-1" d="M772.16,174.09v19.52c0,4.58,1.57,7.2,6.29,7.2s3.41-.26,4.98-.79v12.31c-3.14,1.05-6.42,1.57-9.69,1.57-13.62,0-18.08-7.34-18.08-18.08v-21.75h-8.25v-12.71h8.12v-13.49h16.51v13.49h11.92v12.58h-11.79v.13Z"/>
    <path class="cls-1" d="M842.51,191.51h-36.94c1.05,5.89,6.29,9.96,12.18,9.69,4.45,0,8.65-1.83,11.27-5.37l11.79,7.47c-5.37,7.34-14.15,11.4-23.19,10.87-15.33,0-28.03-9.69-28.03-27.12-.65-14.54,10.74-26.85,25.28-27.38h2.36c15.06,0,25.68,10.35,25.68,27.77s0,2.75-.26,4.19h0l-.13-.13ZM827.31,181.03c.26-5.11-3.67-9.56-8.78-9.82h-1.18c-5.89-.39-11,3.93-11.66,9.82h21.75-.13Z"/>
    <path class="cls-1" d="M883.12,176.57c-2.88-2.75-6.68-4.45-10.61-4.58-3.27,0-6.42,1.18-6.42,4.06s2.75,3.67,9.3,5.11c7.86,1.7,16.37,5.63,16.37,15.59s-11.4,17.42-21.88,17.42c-8.12.26-16.11-2.62-22.27-7.86l9.43-9.96c3.14,3.54,7.73,5.63,12.44,5.76,2.75,0,6.03-1.18,6.03-4.58s-3.14-4.19-10.22-5.89c-6.94-1.57-14.8-5.24-14.8-14.93s11.53-17.16,21.22-17.16c7.47,0,14.8,2.36,20.57,7.2l-9.17,9.56v.26h0Z"/>
    <path class="cls-1" d="M910.5,213.52c-5.63,0-10.35-4.32-10.48-9.96h0c.13-5.63,4.85-10.22,10.48-10.09,5.5,0,10.09,4.45,10.09,10.09s-4.45,10.09-10.09,10.09h0v-.13Z"/>
    <path class="cls-1" d="M967.35,177.88c-2.23-2.62-5.63-4.19-9.04-4.06-6.81.26-12.05,6.03-11.79,12.71v.39c-.39,6.81,4.85,12.44,11.66,12.84,3.54,0,7.07-1.18,9.43-3.8l9.3,11.4c-5.24,4.45-11.79,6.81-18.73,6.68-16.11,0-28.56-10.22-28.56-27.12s12.58-27.12,28.43-27.12c6.94,0,13.75,2.36,18.99,6.81l-9.82,11.13h.13v.13Z"/>
    <path class="cls-1" d="M1009.53,214.17c-14.93.65-27.64-11-28.16-25.94v-1.44c0-16.77,12.84-27.12,28.3-27.12s28.43,10.22,28.43,27.12c0,14.93-11.92,27.25-26.85,27.38h-1.7ZM1009.53,173.69c-6.68,0-12.05,5.5-12.05,12.18v.92c-.65,6.68,4.19,12.71,10.87,13.36,6.68.65,12.71-4.19,13.36-10.87v-2.62c.39-6.81-4.72-12.58-11.4-12.97-.26,0-.52,0-.79,0Z"/>
    <path class="cls-1" d="M1113.81,212.73v-28.03c0-5.89-1.31-10.74-7.34-10.74s-8.51,5.37-8.51,11.13v27.77h-16.77v-29.34c0-5.89-2.23-9.56-7.34-9.56s-8.38,4.85-8.38,11v27.9h-16.77v-51.48h16.24v7.07h.26c3.14-5.37,8.91-8.65,15.2-8.51,6.42-.39,12.44,3.01,15.46,8.65,3.41-5.63,9.69-9.04,16.24-8.65,13.89,0,18.47,11.27,18.47,20.83v31.7h-16.77s0,.26,0,.26Z"/>
  </g>
</svg>