<?xml version="1.0" encoding="UTF-8"?>
<svg id="Calque_2" data-name="Calque 2" xmlns="http://www.w3.org/2000/svg" viewBox="0 0 32 32">
  <defs>
    <style>
      .cls-1 {
        fill: #243355;
      }

      .cls-2 {
        fill: #fff;
      }
    </style>
  </defs>
  <g id="Calque_1-2" data-name="Calque 1">
    <circle class="cls-1" cx="16" cy="16" r="16"/>
    <path class="cls-2" d="M15.73,18.16c.06.01.12.06.14.12.04.06.08.11.12.17.05.06.13.11.15.17.1.26.19.52.28.79.02.04.06.07.1.08.21.07.43.13.63.21.06.02.12.07.14.13.04.11.12.2.21.26.08.06.16.13.23.21.06.1.11.2.15.31,0,.03,0,.09.04.11.09.08.2.15.29.23.06.04.11.09.15.14.05.08.06.19.12.26.12.14.18.33.16.51v1.65c0,.35.07.7.11,1.06.02.22.04.43.06.66,0,.13.06.26.07.39.04.43.06.85.1,1.28.03.34.07.67.11,1.01,0,.18.03.36.06.54,0,.09.03.17.05.26l.07.1c.04.06.08.13.1.21.02-.03.05-.06.08-.09l-.04-.2c-.05-.29-.11-.57-.15-.85-.03-.2,0-.43-.03-.61-.03-.28-.06-.56-.1-.85-.05-.23-.08-.47-.08-.71.02-.14.02-.28,0-.43-.03-.24-.09-.48-.11-.72s-.03-.52-.05-.77-.08-.61-.09-.92,0-.55.03-.85c0-.06,0-.13,0-.19.2.13.39.27.57.43.13.12.24.27.32.43.12.22.19.46.29.69s.17.43.4.56c.04.02.06.06.08.1.07.16.18.31.32.43.07.06.12.14.14.23,0,.09,0,.18-.03.26-.07.22-.14.43-.23.66s-.04.37.23.52c.32.17.69.25,1.06.23.05-.01.1-.05.13-.09.09-.14.27-.19.43-.12.29.15.61.24.94.24.35.02.7-.03,1.02-.15l.2-.11c.18-.07.29-.24.28-.43,0-.03,0-.07,0-.1,0-.23-.14-.45-.36-.52-.13-.05-.26-.07-.4-.05-.22.02-.44-.04-.62-.18-.23-.15-.46-.31-.69-.46-.13-.07-.2-.21-.17-.35,0-.05,0-.1,0-.15,0-.13-.12-.23-.24-.22-.03,0-.06,0-.09.02-.03.01-.06.02-.09.03-.03,0-.06,0-.08-.02-.06-.08-.1-.17-.15-.25l-.34-.52s-.06-.09-.08-.14c-.05-.15-.11-.29-.18-.43-.16-.25-.3-.51-.43-.77-.03-.07-.06-.14-.09-.22-.02-.08-.05-.15-.08-.22-.11-.16-.18-.33-.23-.52-.01-.09-.04-.17-.09-.25-.07-.12-.11-.25-.13-.39-.03-.25-.09-.49-.18-.73-.14-.36-.24-.72-.32-1.1-.04-.22-.17-.41-.36-.52-.11-.06-.23-.09-.34-.15s-.32-.13-.35-.33c-.02-.04-.05-.07-.09-.09-.13-.08-.19-.23-.15-.38.03-.19.03-.37.02-.56-.03-.51-.09-1-.14-1.51,0-.02.05-.07.06-.07.17.06.33.11.49.18.1.04.19.09.29.14.02,0,.06.03.06.05,0,.14.12.2.21.27s.2.17.18.32c0,.04.02.07.05.1.03.04.08.08.12.12.16.17.33.33.5.49.18.1.35.23.49.38.06.09.12.15.11.26,0,.04,0,.08.03.12.08.11.17.22.27.32.06.06.11.13.2.05.04,0,.07,0,.1.03.04.05.06.11.06.18-.03.16.02.32.14.43.32.33.64.66.96.99.12.13.33.13.45,0,.03-.03.06-.07.08-.12.07-.04.15-.06.16-.09s.09-.11.14-.17c.03-.05.06-.1.08-.16h.04c.09-.1.1-.26.2-.36,0,0-.03-.05-.03-.07-.01-.05-.01-.1,0-.15.06-.15.16-.29.29-.39.13-.11.24-.23.34-.36.03-.04.02-.12.06-.15.15-.16.27-.36.32-.57.15-.37.15-.79,0-1.16,0-.03-.03-.06-.06-.07-.11-.05-.23-.08-.35-.09-.16-.03-.31.07-.36.23-.04.11-.06.23-.11.35s-.12.27-.18.4c-.05.01-.1.02-.14.04-.32.11-.63.23-.94.34h-.14s-.1-.11,0-.17v-.1s-.14-.13-.2-.2c-.14-.15-.43-.18-.43-.46l-.03-.03s-.06-.08-.09-.12c-.1-.19-.19-.38-.29-.57s-.27-.49-.43-.74-.26-.4-.38-.61c-.08-.13-.14-.28-.22-.4-.26-.36-.52-.72-.79-1.08-.13-.19-.27-.37-.43-.53-.09-.08-.2-.12-.31-.12-.21.02-.42.04-.63.08,0-.06-.02-.12-.03-.19,0-.27-.03-.54-.05-.81-.04-.45-.1-.9-.12-1.36-.04-.8-.06-1.61-.08-2.42,0-.1.03-.11.11-.1.11.02.23.03.34.03.07,0,.13-.03.17-.08.1-.14.18-.28.27-.43.09-.12.16-.25.21-.39.01-.22,0-.44-.03-.66.02-.23-.16-.44-.39-.45-.01,0-.02,0-.03,0h-.43v-.18l.09-1.64c0-.23.03-.46.05-.68s.04-.34.06-.51-.03-.2-.17-.19c-.03.3-.08.6-.09.91-.03.47-.05.95-.07,1.42,0,.26-.03.52-.05.77,0,.02,0,.05,0,.07-.03.05-.06.1-.08.16-.04.32-.15.63-.34.9-.11.1-.16.25-.14.4,0,.03-.06.1-.09.1-.09,0-.16.06-.19.14-.16.26-.32.53-.48.8-.16.35-.34.69-.57,1.01-.11.14-.2.3-.27.46-.13.26-.23.54-.38.8s-.36.61-.55.92c-.06.08-.06.18,0,.26.05.08,0,.14-.07.15-.08.02-.15.04-.22.08l-.16.07c-.02-.12,0-.25.05-.36.1-.37.11-.76.05-1.14-.03-.11,0-.23.1-.3.12-.08.24-.16.37-.23.27-.16.39-.49.29-.79-.01-.04-.01-.09,0-.13.06-.21,0-.44-.17-.59-.17-.14-.4-.17-.6-.09-.04.02-.09.02-.13,0-.03,0-.03-.08-.03-.11.03-.34.07-.69.1-1.03.02-.26.03-.52.05-.78.03-.43.06-.89.09-1.34.02-.35.04-.69.06-1.04,0-.27.03-.43.06-.74s.04-.56.04-.72c-.02-.02-.04-.03-.06-.03-.04,0-.08,0-.1.03,0,.18-.04.5-.05.68-.03.43-.03.5-.04.61,0,.2,0,.39-.03.59s-.03.43-.05.63c0,.12-.04.24-.05.37-.03.53-.04,1.06-.07,1.58-.03.4-.07.79-.11,1.18,0,.07-.05.12-.11.12,0,0-.02,0-.02,0-.05,0-.1,0-.14.03-.2.1-.35.27-.43.48-.11.28-.2.57-.3.85-.03.12-.1.22-.21.28-.06.03-.11.08-.14.14-.07.14-.11.29-.2.43-.07.2-.27.31-.48.28-.07,0-.14,0-.2.03-.17.05-.21.03-.31-.11-.04-.04-.08-.08-.12-.11-.08-.06-.16-.11-.23-.17-.19-.24-.51-.33-.8-.24-.06.02-.12.04-.18.06v-.26c0-.15,0-.18.16-.17.18,0,.37-.04.53-.12.14-.05.21-.21.15-.35-.02-.04-.04-.08-.08-.11-.02-.04-.02-.08,0-.12,0-.06.03-.13,0-.17-.04-.05-.05-.12-.03-.18.02-.03.02-.07,0-.1-.06-.08-.04-.19.04-.25,0,0,0,0,.01,0,.08-.05.11-.15.07-.23-.02-.03-.04-.05-.07-.07-.16-.13-.33-.24-.5-.35-.07-.05-.11-.13-.11-.21,0-.06-.04-.12-.06-.19-.01-.05-.01-.1,0-.15.05-.13.11-.25.17-.37s0-.14-.06-.14c-.21-.04-.4-.14-.56-.29-.12-.09-.25-.17-.39-.24-.38-.17-.81-.23-1.23-.17-.16.01-.32.06-.47.13-.29.16-.54.38-.74.64-.19.22-.32.48-.37.77-.06.51.05,1.02.3,1.46l.07.14c.03.06.06.11.09.17.08.11.23.18.26.34,0,0,.08.05.1.03.09-.06.17-.12.26-.18l.09-.08.04.03c0,.09-.02.18-.06.26-.15.2-.19.45-.11.69,0,.08.03.15.05.23,0,.15-.05.3-.15.43-.13.24-.27.47-.43.7-.05.07-.08.15-.1.24-.03.16-.02.32-.03.47,0,.05-.02.1-.04.14-.12-.17-.21-.32-.32-.46-.03-.03-.08-.04-.12-.06,0,.06-.06.11-.05.16.04.11.08.22.14.33.06.16.13.32.18.48.02.08.04.16.06.23.03.11.05.23.08.34,0,.06.03.12.06.17.11.11.17.27.14.43v.16c-.02.11.04.22.15.25.15.06.25.2.28.35.03.2.04.41.02.61-.02.19-.01.38.04.57.05.24.13.48.23.72.07.2.07.43,0,.63-.03.08-.08.14-.14.2-.07.06-.1.15-.09.25v.61s.01.07.03.1c.07.09.1.2.1.31,0,.26.04.51.07.76,0,.02.01.04.03.06.15.27.34.52.55.75.05.06.09.12.12.18-.04.04-.07.07-.1.11-.03.06-.06.12-.1.17-.13.12-.16.31-.08.46.02.03.04.07.05.11,0,.1.07.19.16.23.13.07.24.17.31.3l.11.15s.04.07.05.11c.04.19.09.37.12.56,0,.11.06.23-.06.32-.45.37-.75.89-.85,1.46-.08.45-.14.9-.17,1.35-.03.21-.05.43-.09.63-.05.19-.09.39-.1.58-.01.47-.08.94-.18,1.39-.03.2-.05.43-.08.62,0,0-.1.67.05.85,0,0,.03.04.05.04s.03-.06.03-.08c.03-.31.12-.61.14-.92,0-.17.04-.43.11-.98.05-.24.08-.48.11-.72.02-.4.07-.79.16-1.18.04-.22.06-.43.09-.66.03-.24.04-.52.09-.77.05-.33.17-.65.34-.94.1-.16.22-.32.35-.49.07.13.2.2.34.2.02,0,.04.01.06.03.04.02.09.06.12.06.19-.03.38-.06.58-.07.15,0,.3-.08.38-.21.05-.07.09-.08.16-.03s.14.03.14-.06c0-.11-.01-.23-.03-.34-.03-.13-.03-.26-.02-.38.05-.15.1-.29.17-.43.08-.2.17-.43.23-.62.09-.3.17-.61.26-.92.07-.23.08-.22.26-.06.1.1.17.25.34.25,0,.05-.03.09-.04.13-.04.17-.06.35-.08.52,0,.16.02.32.04.48,0,.03.02.05.03.08.04.16.05.33.05.49-.07.28-.15.55-.26.81-.07.2-.16.39-.22.59-.04.12-.04.25,0,.37.04.18.19.31.37.34.24.05.49-.04.66-.23.09-.11.14-.25.14-.39.01-.22,0-.44-.06-.65-.02-.15-.02-.3,0-.45.03.02.05.06.07.09.09.17.04.4.25.49v.02c.06.13.14.25.19.38s.16.3.03.46-.34.43-.52.65c-.15.15-.24.35-.25.56,0,.21.04.43.06.62.02.25.12.5.29.69.11.16.33.2.5.09.05-.04.09-.08.12-.14.17-.28.24-.61.2-.94,0-.48-.05-.96-.17-1.43-.03-.08-.03-.16,0-.23.13-.28.21-.58.23-.89.02-.33.02-.66,0-.98,0-.03,0-.07,0-.1l.08.04c.05.03.11.09.16.08.23-.05.43-.18.58-.35.07-.06.07-.17.02-.24-.31-.52-.57-1.08-.75-1.66-.06-.24-.18-.46-.36-.63-.02-.02-.03-.04-.03-.07v-.27c.15-.02.29-.03.43-.06s.14.03.18.12c.06.17.13.34.19.52.03.07.07.09.12.06s.07-.07.05-.14c-.06-.15-.11-.31-.16-.47.17,0,.33,0,.49.03.23.04.46.11.68.16ZM18.53,4.65c.07,0,.13.05.13.12,0,.01,0,.02,0,.03,0,.08-.04.11-.11.11-.07,0-.13-.05-.13-.12,0,0,0-.02,0-.02,0-.08.03-.12.11-.12ZM11.77,18.18s-.08.08-.13.11c-.03.01-.06.03-.09.04-.05.01-.1.02-.14.04-.06.01-.11.08-.09.14,0,.03.02.05.05.07.1.11.22.23.32.34.03.04.05.09.04.14-.08.29-.17.58-.26.85s-.16.51-.24.75c-.06.16-.12.32-.18.48-.12-.1-.22-.2-.32-.32-.06-.1-.1-.21-.11-.32-.04-.25-.13-.49-.26-.71-.02-.03-.02-.07,0-.11.13-.15.16-.36.09-.54-.01-.04-.04-.07-.08-.09-.1-.03-.11-.11-.13-.2s-.07-.25-.1-.37c0-.05,0-.11,0-.16.03-.18.02-.37-.04-.54,0-.08,0-.17,0-.25,0-.06,0-.12,0-.18-.04-.21-.09-.43-.12-.63-.02-.05-.02-.11,0-.16.18-.43.36-.8.54-1.2.03-.07.05-.15.06-.22,0-.06.04-.09.1-.06.15.08.31.14.46.23.06.03.06.09,0,.14s-.13.16-.21.23c-.06.05-.07.15-.02.22,0,0,.01.01.02.02.13.17.29.3.48.4.11.04.21.1.32.14s.1.11.05.16c-.09.12-.14.27-.12.43-.01.17-.01.34,0,.51,0,.06.05.11.06.17.04.13.07.27.1.4,0,.02-.03.05-.04.06ZM12.17,17.68s-.03.06-.03.09-.04.11-.12.1-.14-.06-.13-.16.03-.24.04-.43c0-.07-.04-.19-.08-.3-.03-.12.03-.24.14-.28.13-.03.22,0,.25.17.06.27.04.56-.07.82ZM12.96,22.85c0,.14-.1.27-.23.32-.14.04-.28.06-.43.07-.17,0-.24-.09-.26-.25-.01-.25.04-.5.16-.72.15-.34.27-.68.37-1.04l.04-.09h.03c.01.06.02.12.03.18.01.12.01.24,0,.36,0,.21.06.42.15.61.09.18.14.37.14.57ZM12.76,19.42c-.1-.25-.11-.53-.04-.79.04-.18.02-.37-.06-.54-.03-.11-.08-.21-.1-.32-.02-.1-.02-.21,0-.32,0-.04.06-.09.11-.11s.08.03.1.06c.09.12.18.25.25.38.03.04,0,.12,0,.18-.05.29-.02.58.09.85.08.25-.06.51-.31.59-.02,0-.03,0-.05.01ZM13.34,21.54c-.2-.31-.31-.67-.3-1.03.08-.02.15.04.17.11,0,0,0,0,0,0,.04.14.07.29.1.43s.05.17.06.26c0,.08-.02.16-.04.23h.02ZM14.69,20.59s.08.06.11.09c-.02.11-.05.17-.14.17s-.11-.05-.1-.12.04-.15.13-.14h0ZM13.57,21.26c.12.33.12.34-.04.43-.07-.14-.05-.3.04-.43ZM13.86,24.77c0,.25-.05.49-.17.71-.03.09-.12.15-.22.15-.09-.02-.17-.07-.23-.15-.19-.35-.29-.75-.27-1.15,0-.22.16-.35.28-.5s.27-.34.43-.54c.03.16.06.29.07.43.05.37.08.72.11,1.08h0ZM13.75,22.73c-.1-.15-.17-.33-.2-.52,0-.17-.04-.33.16-.43.08-.05.11-.15.07-.23,0-.04,0-.07.03-.11.02-.05.05-.1.08-.15.1.48.05.98-.14,1.43ZM13.98,19.01c.07.29.15.57.23.85-.01.17-.08.33-.2.46-.06.08-.17.12-.27.09-.1-.02-.16-.11-.15-.21,0-.1,0-.19.03-.29.03-.08,0-.18-.06-.24-.15-.2-.2-.47-.11-.71.03-.14.15-.19.32-.13.1.02.18.1.21.19h0ZM13.79,18.48c0,.06,0,.12,0,.18,0,.02-.06.06-.07.06-.05-.02-.1-.06-.14-.1v-.09s.05,0,.08,0l.14-.04ZM14.22,10.58c-.03.06-.05.13-.06.19-.03.11-.11.19-.22.22-.08-.08-.08-.21,0-.29.08-.11.15-.22.21-.34.08.06.15.11.08.22h0ZM14.38,10.79s-.06-.05-.05-.06-.03-.2.11-.2c.03,0,.06.06.1.09,0,.09-.06.16-.15.17h0ZM14.64,10.19c-.13-.08-.22-.08-.27.04,0,0-.09,0-.09-.02-.02-.08-.03-.16-.03-.23,0-.06.02-.12.03-.17,0-.09.03-.18.03-.27.01-.07.01-.14,0-.2-.04-.13.03-.27.15-.32.09-.04.18,0,.18.1-.01.34-.01.69-.01,1.08ZM18.25,14.45s.02-.04.04-.06h.03l.17,2.31h-.05c-.17-.14-.34-.26-.49-.43-.28-.25-.58-.47-.89-.67h-.02c-.13-.08-.14-.11,0-.2.2-.14.43-.28.62-.43.09-.06.19-.11.28-.17.13-.09.24-.22.32-.36ZM15.12,10.91s.09-.06.09-.09c.04-.15.14-.28.27-.34.08.13.09.14.16,0s.16-.37.24-.55.12-.25.17-.37c.1-.25.19-.49.29-.74,0-.03.04-.06.05-.09s.08-.19.12-.29c.02-.07.06-.13.1-.19.14-.14.24-.31.32-.49.03-.06.08-.11.12-.18s.1-.17.16-.26c.08-.13.17-.25.27-.37.17-.18.22-.43.43-.6,0,.04,0,.07,0,.11v.68c0,.65.04,1.28.07,1.93,0,.3.05.6.07.91.03.43.06.85.1,1.28.01.07-.03.14-.11.15-.14.04-.27.1-.43.14-.25.07-.5.13-.74.21s-.43.18-.66.27c-.06.02-.11.06-.17.09-.19.09-.22.09-.33-.08-.1-.1-.15-.23-.16-.37,0-.06-.1-.19-.16-.19-.2,0-.29-.14-.43-.26-.05-.06-.11-.12-.15-.19.17-.03.25-.06.32-.09h0ZM14.69,12.42v-.94h.06c.04.05.07.1.09.16,0,.06.06.11.12.11.06.01.12.04.17.07.05.04.11.07.17.09.14.04.14.16.15.26.03.09,0,.19-.09.24-.11.07-.23.14-.35.2-.19.07-.3,0-.31-.18h0Z"/>
  </g>
</svg>